<?xml version="1.0" encoding="utf-8" standalone="no"?>
<!DOCTYPE svg PUBLIC "-//W3C//DTD SVG 1.1//EN"
  "http://www.w3.org/Graphics/SVG/1.1/DTD/svg11.dtd">
<svg xmlns:xlink="http://www.w3.org/1999/xlink" width="721.735pt" height="379.661875pt" viewBox="0 0 721.735 379.661875" xmlns="http://www.w3.org/2000/svg" version="1.1">
 <metadata>
  <rdf:RDF xmlns:dc="http://purl.org/dc/elements/1.1/" xmlns:cc="http://creativecommons.org/ns#" xmlns:rdf="http://www.w3.org/1999/02/22-rdf-syntax-ns#">
   <cc:Work>
    <dc:type rdf:resource="http://purl.org/dc/dcmitype/StillImage"/>
    <dc:date>2026-05-07T17:34:41.484028</dc:date>
    <dc:format>image/svg+xml</dc:format>
    <dc:creator>
     <cc:Agent>
      <dc:title>Matplotlib v3.9.2, https://matplotlib.org/</dc:title>
     </cc:Agent>
    </dc:creator>
   </cc:Work>
  </rdf:RDF>
 </metadata>
 <defs>
  <style type="text/css">*{stroke-linejoin: round; stroke-linecap: butt}</style>
 </defs>
 <g id="figure_1">
  <g id="patch_1">
   <path d="M -0 379.661875 
L 721.735 379.661875 
L 721.735 0 
L -0 0 
z
" style="fill: #ffffff"/>
  </g>
  <g id="axes_1">
   <g id="patch_2">
    <path d="M 361.6275 302.774125 
L 520.1525 302.774125 
L 520.1525 38.318125 
L 361.6275 38.318125 
z
" style="fill: #ffffff"/>
   </g>
   <g id="matplotlib.axis_1">
    <g id="xtick_1">
     <g id="line2d_1">
      <path d="M 392.244139 302.774125 
L 392.244139 38.318125 
" clip-path="url(#p0f4d4821cf)" style="fill: none; stroke-dasharray: 0.8,1.32; stroke-dashoffset: 0; stroke: #b0b0b0; stroke-opacity: 0.4; stroke-width: 0.8"/>
     </g>
     <g id="line2d_2">
      <defs>
       <path id="mcdf7194ea2" d="M 0 0 
L 0 3.5 
" style="stroke: #000000; stroke-width: 0.8"/>
      </defs>
      <g>
       <use xlink:href="#mcdf7194ea2" x="392.244139" y="302.774125" style="stroke: #000000; stroke-width: 0.8"/>
      </g>
     </g>
     <g id="text_1">
      <!-- 0 -->
      <g transform="translate(389.062889 317.372563) scale(0.1 -0.1)">
       <defs>
        <path id="DejaVuSans-30" d="M 2034 4250 
Q 1547 4250 1301 3770 
Q 1056 3291 1056 2328 
Q 1056 1369 1301 889 
Q 1547 409 2034 409 
Q 2525 409 2770 889 
Q 3016 1369 3016 2328 
Q 3016 3291 2770 3770 
Q 2525 4250 2034 4250 
z
M 2034 4750 
Q 2819 4750 3233 4129 
Q 3647 3509 3647 2328 
Q 3647 1150 3233 529 
Q 2819 -91 2034 -91 
Q 1250 -91 836 529 
Q 422 1150 422 2328 
Q 422 3509 836 4129 
Q 1250 4750 2034 4750 
z
" transform="scale(0.015625)"/>
       </defs>
       <use xlink:href="#DejaVuSans-30"/>
      </g>
     </g>
    </g>
    <g id="xtick_2">
     <g id="line2d_3">
      <path d="M 435.714478 302.774125 
L 435.714478 38.318125 
" clip-path="url(#p0f4d4821cf)" style="fill: none; stroke-dasharray: 0.8,1.32; stroke-dashoffset: 0; stroke: #b0b0b0; stroke-opacity: 0.4; stroke-width: 0.8"/>
     </g>
     <g id="line2d_4">
      <g>
       <use xlink:href="#mcdf7194ea2" x="435.714478" y="302.774125" style="stroke: #000000; stroke-width: 0.8"/>
      </g>
     </g>
     <g id="text_2">
      <!-- 5 -->
      <g transform="translate(432.533228 317.372563) scale(0.1 -0.1)">
       <defs>
        <path id="DejaVuSans-35" d="M 691 4666 
L 3169 4666 
L 3169 4134 
L 1269 4134 
L 1269 2991 
Q 1406 3038 1543 3061 
Q 1681 3084 1819 3084 
Q 2600 3084 3056 2656 
Q 3513 2228 3513 1497 
Q 3513 744 3044 326 
Q 2575 -91 1722 -91 
Q 1428 -91 1123 -41 
Q 819 9 494 109 
L 494 744 
Q 775 591 1075 516 
Q 1375 441 1709 441 
Q 2250 441 2565 725 
Q 2881 1009 2881 1497 
Q 2881 1984 2565 2268 
Q 2250 2553 1709 2553 
Q 1456 2553 1204 2497 
Q 953 2441 691 2322 
L 691 4666 
z
" transform="scale(0.015625)"/>
       </defs>
       <use xlink:href="#DejaVuSans-35"/>
      </g>
     </g>
    </g>
    <g id="xtick_3">
     <g id="line2d_5">
      <path d="M 479.184817 302.774125 
L 479.184817 38.318125 
" clip-path="url(#p0f4d4821cf)" style="fill: none; stroke-dasharray: 0.8,1.32; stroke-dashoffset: 0; stroke: #b0b0b0; stroke-opacity: 0.4; stroke-width: 0.8"/>
     </g>
     <g id="line2d_6">
      <g>
       <use xlink:href="#mcdf7194ea2" x="479.184817" y="302.774125" style="stroke: #000000; stroke-width: 0.8"/>
      </g>
     </g>
     <g id="text_3">
      <!-- 10 -->
      <g transform="translate(472.822317 317.372563) scale(0.1 -0.1)">
       <defs>
        <path id="DejaVuSans-31" d="M 794 531 
L 1825 531 
L 1825 4091 
L 703 3866 
L 703 4441 
L 1819 4666 
L 2450 4666 
L 2450 531 
L 3481 531 
L 3481 0 
L 794 0 
L 794 531 
z
" transform="scale(0.015625)"/>
       </defs>
       <use xlink:href="#DejaVuSans-31"/>
       <use xlink:href="#DejaVuSans-30" x="63.623047"/>
      </g>
     </g>
    </g>
    <g id="text_4">
     <!-- Effect on pollution change -->
     <g transform="translate(375.269688 331.050688) scale(0.1 -0.1)">
      <defs>
       <path id="DejaVuSans-45" d="M 628 4666 
L 3578 4666 
L 3578 4134 
L 1259 4134 
L 1259 2753 
L 3481 2753 
L 3481 2222 
L 1259 2222 
L 1259 531 
L 3634 531 
L 3634 0 
L 628 0 
L 628 4666 
z
" transform="scale(0.015625)"/>
       <path id="DejaVuSans-66" d="M 2375 4863 
L 2375 4384 
L 1825 4384 
Q 1516 4384 1395 4259 
Q 1275 4134 1275 3809 
L 1275 3500 
L 2222 3500 
L 2222 3053 
L 1275 3053 
L 1275 0 
L 697 0 
L 697 3053 
L 147 3053 
L 147 3500 
L 697 3500 
L 697 3744 
Q 697 4328 969 4595 
Q 1241 4863 1831 4863 
L 2375 4863 
z
" transform="scale(0.015625)"/>
       <path id="DejaVuSans-65" d="M 3597 1894 
L 3597 1613 
L 953 1613 
Q 991 1019 1311 708 
Q 1631 397 2203 397 
Q 2534 397 2845 478 
Q 3156 559 3463 722 
L 3463 178 
Q 3153 47 2828 -22 
Q 2503 -91 2169 -91 
Q 1331 -91 842 396 
Q 353 884 353 1716 
Q 353 2575 817 3079 
Q 1281 3584 2069 3584 
Q 2775 3584 3186 3129 
Q 3597 2675 3597 1894 
z
M 3022 2063 
Q 3016 2534 2758 2815 
Q 2500 3097 2075 3097 
Q 1594 3097 1305 2825 
Q 1016 2553 972 2059 
L 3022 2063 
z
" transform="scale(0.015625)"/>
       <path id="DejaVuSans-63" d="M 3122 3366 
L 3122 2828 
Q 2878 2963 2633 3030 
Q 2388 3097 2138 3097 
Q 1578 3097 1268 2742 
Q 959 2388 959 1747 
Q 959 1106 1268 751 
Q 1578 397 2138 397 
Q 2388 397 2633 464 
Q 2878 531 3122 666 
L 3122 134 
Q 2881 22 2623 -34 
Q 2366 -91 2075 -91 
Q 1284 -91 818 406 
Q 353 903 353 1747 
Q 353 2603 823 3093 
Q 1294 3584 2113 3584 
Q 2378 3584 2631 3529 
Q 2884 3475 3122 3366 
z
" transform="scale(0.015625)"/>
       <path id="DejaVuSans-74" d="M 1172 4494 
L 1172 3500 
L 2356 3500 
L 2356 3053 
L 1172 3053 
L 1172 1153 
Q 1172 725 1289 603 
Q 1406 481 1766 481 
L 2356 481 
L 2356 0 
L 1766 0 
Q 1100 0 847 248 
Q 594 497 594 1153 
L 594 3053 
L 172 3053 
L 172 3500 
L 594 3500 
L 594 4494 
L 1172 4494 
z
" transform="scale(0.015625)"/>
       <path id="DejaVuSans-20" transform="scale(0.015625)"/>
       <path id="DejaVuSans-6f" d="M 1959 3097 
Q 1497 3097 1228 2736 
Q 959 2375 959 1747 
Q 959 1119 1226 758 
Q 1494 397 1959 397 
Q 2419 397 2687 759 
Q 2956 1122 2956 1747 
Q 2956 2369 2687 2733 
Q 2419 3097 1959 3097 
z
M 1959 3584 
Q 2709 3584 3137 3096 
Q 3566 2609 3566 1747 
Q 3566 888 3137 398 
Q 2709 -91 1959 -91 
Q 1206 -91 779 398 
Q 353 888 353 1747 
Q 353 2609 779 3096 
Q 1206 3584 1959 3584 
z
" transform="scale(0.015625)"/>
       <path id="DejaVuSans-6e" d="M 3513 2113 
L 3513 0 
L 2938 0 
L 2938 2094 
Q 2938 2591 2744 2837 
Q 2550 3084 2163 3084 
Q 1697 3084 1428 2787 
Q 1159 2491 1159 1978 
L 1159 0 
L 581 0 
L 581 3500 
L 1159 3500 
L 1159 2956 
Q 1366 3272 1645 3428 
Q 1925 3584 2291 3584 
Q 2894 3584 3203 3211 
Q 3513 2838 3513 2113 
z
" transform="scale(0.015625)"/>
       <path id="DejaVuSans-70" d="M 1159 525 
L 1159 -1331 
L 581 -1331 
L 581 3500 
L 1159 3500 
L 1159 2969 
Q 1341 3281 1617 3432 
Q 1894 3584 2278 3584 
Q 2916 3584 3314 3078 
Q 3713 2572 3713 1747 
Q 3713 922 3314 415 
Q 2916 -91 2278 -91 
Q 1894 -91 1617 61 
Q 1341 213 1159 525 
z
M 3116 1747 
Q 3116 2381 2855 2742 
Q 2594 3103 2138 3103 
Q 1681 3103 1420 2742 
Q 1159 2381 1159 1747 
Q 1159 1113 1420 752 
Q 1681 391 2138 391 
Q 2594 391 2855 752 
Q 3116 1113 3116 1747 
z
" transform="scale(0.015625)"/>
       <path id="DejaVuSans-6c" d="M 603 4863 
L 1178 4863 
L 1178 0 
L 603 0 
L 603 4863 
z
" transform="scale(0.015625)"/>
       <path id="DejaVuSans-75" d="M 544 1381 
L 544 3500 
L 1119 3500 
L 1119 1403 
Q 1119 906 1312 657 
Q 1506 409 1894 409 
Q 2359 409 2629 706 
Q 2900 1003 2900 1516 
L 2900 3500 
L 3475 3500 
L 3475 0 
L 2900 0 
L 2900 538 
Q 2691 219 2414 64 
Q 2138 -91 1772 -91 
Q 1169 -91 856 284 
Q 544 659 544 1381 
z
M 1991 3584 
L 1991 3584 
z
" transform="scale(0.015625)"/>
       <path id="DejaVuSans-69" d="M 603 3500 
L 1178 3500 
L 1178 0 
L 603 0 
L 603 3500 
z
M 603 4863 
L 1178 4863 
L 1178 4134 
L 603 4134 
L 603 4863 
z
" transform="scale(0.015625)"/>
       <path id="DejaVuSans-68" d="M 3513 2113 
L 3513 0 
L 2938 0 
L 2938 2094 
Q 2938 2591 2744 2837 
Q 2550 3084 2163 3084 
Q 1697 3084 1428 2787 
Q 1159 2491 1159 1978 
L 1159 0 
L 581 0 
L 581 4863 
L 1159 4863 
L 1159 2956 
Q 1366 3272 1645 3428 
Q 1925 3584 2291 3584 
Q 2894 3584 3203 3211 
Q 3513 2838 3513 2113 
z
" transform="scale(0.015625)"/>
       <path id="DejaVuSans-61" d="M 2194 1759 
Q 1497 1759 1228 1600 
Q 959 1441 959 1056 
Q 959 750 1161 570 
Q 1363 391 1709 391 
Q 2188 391 2477 730 
Q 2766 1069 2766 1631 
L 2766 1759 
L 2194 1759 
z
M 3341 1997 
L 3341 0 
L 2766 0 
L 2766 531 
Q 2569 213 2275 61 
Q 1981 -91 1556 -91 
Q 1019 -91 701 211 
Q 384 513 384 1019 
Q 384 1609 779 1909 
Q 1175 2209 1959 2209 
L 2766 2209 
L 2766 2266 
Q 2766 2663 2505 2880 
Q 2244 3097 1772 3097 
Q 1472 3097 1187 3025 
Q 903 2953 641 2809 
L 641 3341 
Q 956 3463 1253 3523 
Q 1550 3584 1831 3584 
Q 2591 3584 2966 3190 
Q 3341 2797 3341 1997 
z
" transform="scale(0.015625)"/>
       <path id="DejaVuSans-67" d="M 2906 1791 
Q 2906 2416 2648 2759 
Q 2391 3103 1925 3103 
Q 1463 3103 1205 2759 
Q 947 2416 947 1791 
Q 947 1169 1205 825 
Q 1463 481 1925 481 
Q 2391 481 2648 825 
Q 2906 1169 2906 1791 
z
M 3481 434 
Q 3481 -459 3084 -895 
Q 2688 -1331 1869 -1331 
Q 1566 -1331 1297 -1286 
Q 1028 -1241 775 -1147 
L 775 -588 
Q 1028 -725 1275 -790 
Q 1522 -856 1778 -856 
Q 2344 -856 2625 -561 
Q 2906 -266 2906 331 
L 2906 616 
Q 2728 306 2450 153 
Q 2172 0 1784 0 
Q 1141 0 747 490 
Q 353 981 353 1791 
Q 353 2603 747 3093 
Q 1141 3584 1784 3584 
Q 2172 3584 2450 3431 
Q 2728 3278 2906 2969 
L 2906 3500 
L 3481 3500 
L 3481 434 
z
" transform="scale(0.015625)"/>
      </defs>
      <use xlink:href="#DejaVuSans-45"/>
      <use xlink:href="#DejaVuSans-66" x="63.183594"/>
      <use xlink:href="#DejaVuSans-66" x="98.388672"/>
      <use xlink:href="#DejaVuSans-65" x="133.59375"/>
      <use xlink:href="#DejaVuSans-63" x="195.117188"/>
      <use xlink:href="#DejaVuSans-74" x="250.097656"/>
      <use xlink:href="#DejaVuSans-20" x="289.306641"/>
      <use xlink:href="#DejaVuSans-6f" x="321.09375"/>
      <use xlink:href="#DejaVuSans-6e" x="382.275391"/>
      <use xlink:href="#DejaVuSans-20" x="445.654297"/>
      <use xlink:href="#DejaVuSans-70" x="477.441406"/>
      <use xlink:href="#DejaVuSans-6f" x="540.917969"/>
      <use xlink:href="#DejaVuSans-6c" x="602.099609"/>
      <use xlink:href="#DejaVuSans-6c" x="629.882812"/>
      <use xlink:href="#DejaVuSans-75" x="657.666016"/>
      <use xlink:href="#DejaVuSans-74" x="721.044922"/>
      <use xlink:href="#DejaVuSans-69" x="760.253906"/>
      <use xlink:href="#DejaVuSans-6f" x="788.037109"/>
      <use xlink:href="#DejaVuSans-6e" x="849.21875"/>
      <use xlink:href="#DejaVuSans-20" x="912.597656"/>
      <use xlink:href="#DejaVuSans-63" x="944.384766"/>
      <use xlink:href="#DejaVuSans-68" x="999.365234"/>
      <use xlink:href="#DejaVuSans-61" x="1062.744141"/>
      <use xlink:href="#DejaVuSans-6e" x="1124.023438"/>
      <use xlink:href="#DejaVuSans-67" x="1187.402344"/>
      <use xlink:href="#DejaVuSans-65" x="1250.878906"/>
     </g>
     <!-- (left = bigger drop, right = smaller drop) -->
     <g transform="translate(338.855625 342.2485) scale(0.1 -0.1)">
      <defs>
       <path id="DejaVuSans-28" d="M 1984 4856 
Q 1566 4138 1362 3434 
Q 1159 2731 1159 2009 
Q 1159 1288 1364 580 
Q 1569 -128 1984 -844 
L 1484 -844 
Q 1016 -109 783 600 
Q 550 1309 550 2009 
Q 550 2706 781 3412 
Q 1013 4119 1484 4856 
L 1984 4856 
z
" transform="scale(0.015625)"/>
       <path id="DejaVuSans-3d" d="M 678 2906 
L 4684 2906 
L 4684 2381 
L 678 2381 
L 678 2906 
z
M 678 1631 
L 4684 1631 
L 4684 1100 
L 678 1100 
L 678 1631 
z
" transform="scale(0.015625)"/>
       <path id="DejaVuSans-62" d="M 3116 1747 
Q 3116 2381 2855 2742 
Q 2594 3103 2138 3103 
Q 1681 3103 1420 2742 
Q 1159 2381 1159 1747 
Q 1159 1113 1420 752 
Q 1681 391 2138 391 
Q 2594 391 2855 752 
Q 3116 1113 3116 1747 
z
M 1159 2969 
Q 1341 3281 1617 3432 
Q 1894 3584 2278 3584 
Q 2916 3584 3314 3078 
Q 3713 2572 3713 1747 
Q 3713 922 3314 415 
Q 2916 -91 2278 -91 
Q 1894 -91 1617 61 
Q 1341 213 1159 525 
L 1159 0 
L 581 0 
L 581 4863 
L 1159 4863 
L 1159 2969 
z
" transform="scale(0.015625)"/>
       <path id="DejaVuSans-72" d="M 2631 2963 
Q 2534 3019 2420 3045 
Q 2306 3072 2169 3072 
Q 1681 3072 1420 2755 
Q 1159 2438 1159 1844 
L 1159 0 
L 581 0 
L 581 3500 
L 1159 3500 
L 1159 2956 
Q 1341 3275 1631 3429 
Q 1922 3584 2338 3584 
Q 2397 3584 2469 3576 
Q 2541 3569 2628 3553 
L 2631 2963 
z
" transform="scale(0.015625)"/>
       <path id="DejaVuSans-64" d="M 2906 2969 
L 2906 4863 
L 3481 4863 
L 3481 0 
L 2906 0 
L 2906 525 
Q 2725 213 2448 61 
Q 2172 -91 1784 -91 
Q 1150 -91 751 415 
Q 353 922 353 1747 
Q 353 2572 751 3078 
Q 1150 3584 1784 3584 
Q 2172 3584 2448 3432 
Q 2725 3281 2906 2969 
z
M 947 1747 
Q 947 1113 1208 752 
Q 1469 391 1925 391 
Q 2381 391 2643 752 
Q 2906 1113 2906 1747 
Q 2906 2381 2643 2742 
Q 2381 3103 1925 3103 
Q 1469 3103 1208 2742 
Q 947 2381 947 1747 
z
" transform="scale(0.015625)"/>
       <path id="DejaVuSans-2c" d="M 750 794 
L 1409 794 
L 1409 256 
L 897 -744 
L 494 -744 
L 750 256 
L 750 794 
z
" transform="scale(0.015625)"/>
       <path id="DejaVuSans-73" d="M 2834 3397 
L 2834 2853 
Q 2591 2978 2328 3040 
Q 2066 3103 1784 3103 
Q 1356 3103 1142 2972 
Q 928 2841 928 2578 
Q 928 2378 1081 2264 
Q 1234 2150 1697 2047 
L 1894 2003 
Q 2506 1872 2764 1633 
Q 3022 1394 3022 966 
Q 3022 478 2636 193 
Q 2250 -91 1575 -91 
Q 1294 -91 989 -36 
Q 684 19 347 128 
L 347 722 
Q 666 556 975 473 
Q 1284 391 1588 391 
Q 1994 391 2212 530 
Q 2431 669 2431 922 
Q 2431 1156 2273 1281 
Q 2116 1406 1581 1522 
L 1381 1569 
Q 847 1681 609 1914 
Q 372 2147 372 2553 
Q 372 3047 722 3315 
Q 1072 3584 1716 3584 
Q 2034 3584 2315 3537 
Q 2597 3491 2834 3397 
z
" transform="scale(0.015625)"/>
       <path id="DejaVuSans-6d" d="M 3328 2828 
Q 3544 3216 3844 3400 
Q 4144 3584 4550 3584 
Q 5097 3584 5394 3201 
Q 5691 2819 5691 2113 
L 5691 0 
L 5113 0 
L 5113 2094 
Q 5113 2597 4934 2840 
Q 4756 3084 4391 3084 
Q 3944 3084 3684 2787 
Q 3425 2491 3425 1978 
L 3425 0 
L 2847 0 
L 2847 2094 
Q 2847 2600 2669 2842 
Q 2491 3084 2119 3084 
Q 1678 3084 1418 2786 
Q 1159 2488 1159 1978 
L 1159 0 
L 581 0 
L 581 3500 
L 1159 3500 
L 1159 2956 
Q 1356 3278 1631 3431 
Q 1906 3584 2284 3584 
Q 2666 3584 2933 3390 
Q 3200 3197 3328 2828 
z
" transform="scale(0.015625)"/>
       <path id="DejaVuSans-29" d="M 513 4856 
L 1013 4856 
Q 1481 4119 1714 3412 
Q 1947 2706 1947 2009 
Q 1947 1309 1714 600 
Q 1481 -109 1013 -844 
L 513 -844 
Q 928 -128 1133 580 
Q 1338 1288 1338 2009 
Q 1338 2731 1133 3434 
Q 928 4138 513 4856 
z
" transform="scale(0.015625)"/>
      </defs>
      <use xlink:href="#DejaVuSans-28"/>
      <use xlink:href="#DejaVuSans-6c" x="39.013672"/>
      <use xlink:href="#DejaVuSans-65" x="66.796875"/>
      <use xlink:href="#DejaVuSans-66" x="128.320312"/>
      <use xlink:href="#DejaVuSans-74" x="161.775391"/>
      <use xlink:href="#DejaVuSans-20" x="200.984375"/>
      <use xlink:href="#DejaVuSans-3d" x="232.771484"/>
      <use xlink:href="#DejaVuSans-20" x="316.560547"/>
      <use xlink:href="#DejaVuSans-62" x="348.347656"/>
      <use xlink:href="#DejaVuSans-69" x="411.824219"/>
      <use xlink:href="#DejaVuSans-67" x="439.607422"/>
      <use xlink:href="#DejaVuSans-67" x="503.083984"/>
      <use xlink:href="#DejaVuSans-65" x="566.560547"/>
      <use xlink:href="#DejaVuSans-72" x="628.083984"/>
      <use xlink:href="#DejaVuSans-20" x="669.197266"/>
      <use xlink:href="#DejaVuSans-64" x="700.984375"/>
      <use xlink:href="#DejaVuSans-72" x="764.460938"/>
      <use xlink:href="#DejaVuSans-6f" x="803.324219"/>
      <use xlink:href="#DejaVuSans-70" x="864.505859"/>
      <use xlink:href="#DejaVuSans-2c" x="927.982422"/>
      <use xlink:href="#DejaVuSans-20" x="959.769531"/>
      <use xlink:href="#DejaVuSans-72" x="991.556641"/>
      <use xlink:href="#DejaVuSans-69" x="1032.669922"/>
      <use xlink:href="#DejaVuSans-67" x="1060.453125"/>
      <use xlink:href="#DejaVuSans-68" x="1123.929688"/>
      <use xlink:href="#DejaVuSans-74" x="1187.308594"/>
      <use xlink:href="#DejaVuSans-20" x="1226.517578"/>
      <use xlink:href="#DejaVuSans-3d" x="1258.304688"/>
      <use xlink:href="#DejaVuSans-20" x="1342.09375"/>
      <use xlink:href="#DejaVuSans-73" x="1373.880859"/>
      <use xlink:href="#DejaVuSans-6d" x="1425.980469"/>
      <use xlink:href="#DejaVuSans-61" x="1523.392578"/>
      <use xlink:href="#DejaVuSans-6c" x="1584.671875"/>
      <use xlink:href="#DejaVuSans-6c" x="1612.455078"/>
      <use xlink:href="#DejaVuSans-65" x="1640.238281"/>
      <use xlink:href="#DejaVuSans-72" x="1701.761719"/>
      <use xlink:href="#DejaVuSans-20" x="1742.875"/>
      <use xlink:href="#DejaVuSans-64" x="1774.662109"/>
      <use xlink:href="#DejaVuSans-72" x="1838.138672"/>
      <use xlink:href="#DejaVuSans-6f" x="1877.001953"/>
      <use xlink:href="#DejaVuSans-70" x="1938.183594"/>
      <use xlink:href="#DejaVuSans-29" x="2001.660156"/>
     </g>
    </g>
   </g>
   <g id="matplotlib.axis_2">
    <g id="ytick_1">
     <g id="line2d_7">
      <defs>
       <path id="mf0df4714a8" d="M 0 0 
L -3.5 0 
" style="stroke: #000000; stroke-width: 0.8"/>
      </defs>
      <g>
       <use xlink:href="#mf0df4714a8" x="361.6275" y="290.753398" style="stroke: #000000; stroke-width: 0.8"/>
      </g>
     </g>
     <g id="text_5">
      <!-- Subway stations in neighborhood -->
      <g transform="translate(187.815 294.552616) scale(0.1 -0.1)">
       <defs>
        <path id="DejaVuSans-53" d="M 3425 4513 
L 3425 3897 
Q 3066 4069 2747 4153 
Q 2428 4238 2131 4238 
Q 1616 4238 1336 4038 
Q 1056 3838 1056 3469 
Q 1056 3159 1242 3001 
Q 1428 2844 1947 2747 
L 2328 2669 
Q 3034 2534 3370 2195 
Q 3706 1856 3706 1288 
Q 3706 609 3251 259 
Q 2797 -91 1919 -91 
Q 1588 -91 1214 -16 
Q 841 59 441 206 
L 441 856 
Q 825 641 1194 531 
Q 1563 422 1919 422 
Q 2459 422 2753 634 
Q 3047 847 3047 1241 
Q 3047 1584 2836 1778 
Q 2625 1972 2144 2069 
L 1759 2144 
Q 1053 2284 737 2584 
Q 422 2884 422 3419 
Q 422 4038 858 4394 
Q 1294 4750 2059 4750 
Q 2388 4750 2728 4690 
Q 3069 4631 3425 4513 
z
" transform="scale(0.015625)"/>
        <path id="DejaVuSans-77" d="M 269 3500 
L 844 3500 
L 1563 769 
L 2278 3500 
L 2956 3500 
L 3675 769 
L 4391 3500 
L 4966 3500 
L 4050 0 
L 3372 0 
L 2619 2869 
L 1863 0 
L 1184 0 
L 269 3500 
z
" transform="scale(0.015625)"/>
        <path id="DejaVuSans-79" d="M 2059 -325 
Q 1816 -950 1584 -1140 
Q 1353 -1331 966 -1331 
L 506 -1331 
L 506 -850 
L 844 -850 
Q 1081 -850 1212 -737 
Q 1344 -625 1503 -206 
L 1606 56 
L 191 3500 
L 800 3500 
L 1894 763 
L 2988 3500 
L 3597 3500 
L 2059 -325 
z
" transform="scale(0.015625)"/>
       </defs>
       <use xlink:href="#DejaVuSans-53"/>
       <use xlink:href="#DejaVuSans-75" x="63.476562"/>
       <use xlink:href="#DejaVuSans-62" x="126.855469"/>
       <use xlink:href="#DejaVuSans-77" x="190.332031"/>
       <use xlink:href="#DejaVuSans-61" x="272.119141"/>
       <use xlink:href="#DejaVuSans-79" x="333.398438"/>
       <use xlink:href="#DejaVuSans-20" x="392.578125"/>
       <use xlink:href="#DejaVuSans-73" x="424.365234"/>
       <use xlink:href="#DejaVuSans-74" x="476.464844"/>
       <use xlink:href="#DejaVuSans-61" x="515.673828"/>
       <use xlink:href="#DejaVuSans-74" x="576.953125"/>
       <use xlink:href="#DejaVuSans-69" x="616.162109"/>
       <use xlink:href="#DejaVuSans-6f" x="643.945312"/>
       <use xlink:href="#DejaVuSans-6e" x="705.126953"/>
       <use xlink:href="#DejaVuSans-73" x="768.505859"/>
       <use xlink:href="#DejaVuSans-20" x="820.605469"/>
       <use xlink:href="#DejaVuSans-69" x="852.392578"/>
       <use xlink:href="#DejaVuSans-6e" x="880.175781"/>
       <use xlink:href="#DejaVuSans-20" x="943.554688"/>
       <use xlink:href="#DejaVuSans-6e" x="975.341797"/>
       <use xlink:href="#DejaVuSans-65" x="1038.720703"/>
       <use xlink:href="#DejaVuSans-69" x="1100.244141"/>
       <use xlink:href="#DejaVuSans-67" x="1128.027344"/>
       <use xlink:href="#DejaVuSans-68" x="1191.503906"/>
       <use xlink:href="#DejaVuSans-62" x="1254.882812"/>
       <use xlink:href="#DejaVuSans-6f" x="1318.359375"/>
       <use xlink:href="#DejaVuSans-72" x="1379.541016"/>
       <use xlink:href="#DejaVuSans-68" x="1418.904297"/>
       <use xlink:href="#DejaVuSans-6f" x="1482.283203"/>
       <use xlink:href="#DejaVuSans-6f" x="1543.464844"/>
       <use xlink:href="#DejaVuSans-64" x="1604.646484"/>
      </g>
     </g>
    </g>
    <g id="ytick_2">
     <g id="line2d_8">
      <g>
       <use xlink:href="#mf0df4714a8" x="361.6275" y="250.684307" style="stroke: #000000; stroke-width: 0.8"/>
      </g>
     </g>
     <g id="text_6">
      <!-- Population density -->
      <g transform="translate(262.250938 254.483526) scale(0.1 -0.1)">
       <defs>
        <path id="DejaVuSans-50" d="M 1259 4147 
L 1259 2394 
L 2053 2394 
Q 2494 2394 2734 2622 
Q 2975 2850 2975 3272 
Q 2975 3691 2734 3919 
Q 2494 4147 2053 4147 
L 1259 4147 
z
M 628 4666 
L 2053 4666 
Q 2838 4666 3239 4311 
Q 3641 3956 3641 3272 
Q 3641 2581 3239 2228 
Q 2838 1875 2053 1875 
L 1259 1875 
L 1259 0 
L 628 0 
L 628 4666 
z
" transform="scale(0.015625)"/>
       </defs>
       <use xlink:href="#DejaVuSans-50"/>
       <use xlink:href="#DejaVuSans-6f" x="56.677734"/>
       <use xlink:href="#DejaVuSans-70" x="117.859375"/>
       <use xlink:href="#DejaVuSans-75" x="181.335938"/>
       <use xlink:href="#DejaVuSans-6c" x="244.714844"/>
       <use xlink:href="#DejaVuSans-61" x="272.498047"/>
       <use xlink:href="#DejaVuSans-74" x="333.777344"/>
       <use xlink:href="#DejaVuSans-69" x="372.986328"/>
       <use xlink:href="#DejaVuSans-6f" x="400.769531"/>
       <use xlink:href="#DejaVuSans-6e" x="461.951172"/>
       <use xlink:href="#DejaVuSans-20" x="525.330078"/>
       <use xlink:href="#DejaVuSans-64" x="557.117188"/>
       <use xlink:href="#DejaVuSans-65" x="620.59375"/>
       <use xlink:href="#DejaVuSans-6e" x="682.117188"/>
       <use xlink:href="#DejaVuSans-73" x="745.496094"/>
       <use xlink:href="#DejaVuSans-69" x="797.595703"/>
       <use xlink:href="#DejaVuSans-74" x="825.378906"/>
       <use xlink:href="#DejaVuSans-79" x="864.587891"/>
      </g>
     </g>
    </g>
    <g id="ytick_3">
     <g id="line2d_9">
      <g>
       <use xlink:href="#mf0df4714a8" x="361.6275" y="210.615216" style="stroke: #000000; stroke-width: 0.8"/>
      </g>
     </g>
     <g id="text_7">
      <!-- % workers commuting by transit -->
      <g transform="translate(191.611875 214.414435) scale(0.1 -0.1)">
       <defs>
        <path id="DejaVuSans-25" d="M 4653 2053 
Q 4381 2053 4226 1822 
Q 4072 1591 4072 1178 
Q 4072 772 4226 539 
Q 4381 306 4653 306 
Q 4919 306 5073 539 
Q 5228 772 5228 1178 
Q 5228 1588 5073 1820 
Q 4919 2053 4653 2053 
z
M 4653 2450 
Q 5147 2450 5437 2106 
Q 5728 1763 5728 1178 
Q 5728 594 5436 251 
Q 5144 -91 4653 -91 
Q 4153 -91 3862 251 
Q 3572 594 3572 1178 
Q 3572 1766 3864 2108 
Q 4156 2450 4653 2450 
z
M 1428 4353 
Q 1159 4353 1004 4120 
Q 850 3888 850 3481 
Q 850 3069 1003 2837 
Q 1156 2606 1428 2606 
Q 1700 2606 1854 2837 
Q 2009 3069 2009 3481 
Q 2009 3884 1853 4118 
Q 1697 4353 1428 4353 
z
M 4250 4750 
L 4750 4750 
L 1831 -91 
L 1331 -91 
L 4250 4750 
z
M 1428 4750 
Q 1922 4750 2215 4408 
Q 2509 4066 2509 3481 
Q 2509 2891 2217 2550 
Q 1925 2209 1428 2209 
Q 931 2209 642 2551 
Q 353 2894 353 3481 
Q 353 4063 643 4406 
Q 934 4750 1428 4750 
z
" transform="scale(0.015625)"/>
        <path id="DejaVuSans-6b" d="M 581 4863 
L 1159 4863 
L 1159 1991 
L 2875 3500 
L 3609 3500 
L 1753 1863 
L 3688 0 
L 2938 0 
L 1159 1709 
L 1159 0 
L 581 0 
L 581 4863 
z
" transform="scale(0.015625)"/>
       </defs>
       <use xlink:href="#DejaVuSans-25"/>
       <use xlink:href="#DejaVuSans-20" x="95.019531"/>
       <use xlink:href="#DejaVuSans-77" x="126.806641"/>
       <use xlink:href="#DejaVuSans-6f" x="208.59375"/>
       <use xlink:href="#DejaVuSans-72" x="269.775391"/>
       <use xlink:href="#DejaVuSans-6b" x="310.888672"/>
       <use xlink:href="#DejaVuSans-65" x="365.173828"/>
       <use xlink:href="#DejaVuSans-72" x="426.697266"/>
       <use xlink:href="#DejaVuSans-73" x="467.810547"/>
       <use xlink:href="#DejaVuSans-20" x="519.910156"/>
       <use xlink:href="#DejaVuSans-63" x="551.697266"/>
       <use xlink:href="#DejaVuSans-6f" x="606.677734"/>
       <use xlink:href="#DejaVuSans-6d" x="667.859375"/>
       <use xlink:href="#DejaVuSans-6d" x="765.271484"/>
       <use xlink:href="#DejaVuSans-75" x="862.683594"/>
       <use xlink:href="#DejaVuSans-74" x="926.0625"/>
       <use xlink:href="#DejaVuSans-69" x="965.271484"/>
       <use xlink:href="#DejaVuSans-6e" x="993.054688"/>
       <use xlink:href="#DejaVuSans-67" x="1056.433594"/>
       <use xlink:href="#DejaVuSans-20" x="1119.910156"/>
       <use xlink:href="#DejaVuSans-62" x="1151.697266"/>
       <use xlink:href="#DejaVuSans-79" x="1215.173828"/>
       <use xlink:href="#DejaVuSans-20" x="1274.353516"/>
       <use xlink:href="#DejaVuSans-74" x="1306.140625"/>
       <use xlink:href="#DejaVuSans-72" x="1345.349609"/>
       <use xlink:href="#DejaVuSans-61" x="1386.462891"/>
       <use xlink:href="#DejaVuSans-6e" x="1447.742188"/>
       <use xlink:href="#DejaVuSans-73" x="1511.121094"/>
       <use xlink:href="#DejaVuSans-69" x="1563.220703"/>
       <use xlink:href="#DejaVuSans-74" x="1591.003906"/>
      </g>
     </g>
    </g>
    <g id="ytick_4">
     <g id="line2d_10">
      <g>
       <use xlink:href="#mf0df4714a8" x="361.6275" y="170.546125" style="stroke: #000000; stroke-width: 0.8"/>
      </g>
     </g>
     <g id="text_8">
      <!-- % households with no car -->
      <g transform="translate(226.057188 174.345344) scale(0.1 -0.1)">
       <use xlink:href="#DejaVuSans-25"/>
       <use xlink:href="#DejaVuSans-20" x="95.019531"/>
       <use xlink:href="#DejaVuSans-68" x="126.806641"/>
       <use xlink:href="#DejaVuSans-6f" x="190.185547"/>
       <use xlink:href="#DejaVuSans-75" x="251.367188"/>
       <use xlink:href="#DejaVuSans-73" x="314.746094"/>
       <use xlink:href="#DejaVuSans-65" x="366.845703"/>
       <use xlink:href="#DejaVuSans-68" x="428.369141"/>
       <use xlink:href="#DejaVuSans-6f" x="491.748047"/>
       <use xlink:href="#DejaVuSans-6c" x="552.929688"/>
       <use xlink:href="#DejaVuSans-64" x="580.712891"/>
       <use xlink:href="#DejaVuSans-73" x="644.189453"/>
       <use xlink:href="#DejaVuSans-20" x="696.289062"/>
       <use xlink:href="#DejaVuSans-77" x="728.076172"/>
       <use xlink:href="#DejaVuSans-69" x="809.863281"/>
       <use xlink:href="#DejaVuSans-74" x="837.646484"/>
       <use xlink:href="#DejaVuSans-68" x="876.855469"/>
       <use xlink:href="#DejaVuSans-20" x="940.234375"/>
       <use xlink:href="#DejaVuSans-6e" x="972.021484"/>
       <use xlink:href="#DejaVuSans-6f" x="1035.400391"/>
       <use xlink:href="#DejaVuSans-20" x="1096.582031"/>
       <use xlink:href="#DejaVuSans-63" x="1128.369141"/>
       <use xlink:href="#DejaVuSans-61" x="1183.349609"/>
       <use xlink:href="#DejaVuSans-72" x="1244.628906"/>
      </g>
     </g>
    </g>
    <g id="ytick_5">
     <g id="line2d_11">
      <g>
       <use xlink:href="#mf0df4714a8" x="361.6275" y="130.477034" style="stroke: #000000; stroke-width: 0.8"/>
      </g>
     </g>
     <g id="text_9">
      <!-- Neighborhood income (log) -->
      <g transform="translate(218.17125 134.276253) scale(0.1 -0.1)">
       <defs>
        <path id="DejaVuSans-4e" d="M 628 4666 
L 1478 4666 
L 3547 763 
L 3547 4666 
L 4159 4666 
L 4159 0 
L 3309 0 
L 1241 3903 
L 1241 0 
L 628 0 
L 628 4666 
z
" transform="scale(0.015625)"/>
       </defs>
       <use xlink:href="#DejaVuSans-4e"/>
       <use xlink:href="#DejaVuSans-65" x="74.804688"/>
       <use xlink:href="#DejaVuSans-69" x="136.328125"/>
       <use xlink:href="#DejaVuSans-67" x="164.111328"/>
       <use xlink:href="#DejaVuSans-68" x="227.587891"/>
       <use xlink:href="#DejaVuSans-62" x="290.966797"/>
       <use xlink:href="#DejaVuSans-6f" x="354.443359"/>
       <use xlink:href="#DejaVuSans-72" x="415.625"/>
       <use xlink:href="#DejaVuSans-68" x="454.988281"/>
       <use xlink:href="#DejaVuSans-6f" x="518.367188"/>
       <use xlink:href="#DejaVuSans-6f" x="579.548828"/>
       <use xlink:href="#DejaVuSans-64" x="640.730469"/>
       <use xlink:href="#DejaVuSans-20" x="704.207031"/>
       <use xlink:href="#DejaVuSans-69" x="735.994141"/>
       <use xlink:href="#DejaVuSans-6e" x="763.777344"/>
       <use xlink:href="#DejaVuSans-63" x="827.15625"/>
       <use xlink:href="#DejaVuSans-6f" x="882.136719"/>
       <use xlink:href="#DejaVuSans-6d" x="943.318359"/>
       <use xlink:href="#DejaVuSans-65" x="1040.730469"/>
       <use xlink:href="#DejaVuSans-20" x="1102.253906"/>
       <use xlink:href="#DejaVuSans-28" x="1134.041016"/>
       <use xlink:href="#DejaVuSans-6c" x="1173.054688"/>
       <use xlink:href="#DejaVuSans-6f" x="1200.837891"/>
       <use xlink:href="#DejaVuSans-67" x="1262.019531"/>
       <use xlink:href="#DejaVuSans-29" x="1325.496094"/>
      </g>
     </g>
    </g>
    <g id="ytick_6">
     <g id="line2d_12">
      <g>
       <use xlink:href="#mf0df4714a8" x="361.6275" y="90.407943" style="stroke: #000000; stroke-width: 0.8"/>
      </g>
     </g>
     <g id="text_10">
      <!-- Inside the zone (yes/no) -->
      <g transform="translate(234.138438 94.207162) scale(0.1 -0.1)">
       <defs>
        <path id="DejaVuSans-49" d="M 628 4666 
L 1259 4666 
L 1259 0 
L 628 0 
L 628 4666 
z
" transform="scale(0.015625)"/>
        <path id="DejaVuSans-7a" d="M 353 3500 
L 3084 3500 
L 3084 2975 
L 922 459 
L 3084 459 
L 3084 0 
L 275 0 
L 275 525 
L 2438 3041 
L 353 3041 
L 353 3500 
z
" transform="scale(0.015625)"/>
        <path id="DejaVuSans-2f" d="M 1625 4666 
L 2156 4666 
L 531 -594 
L 0 -594 
L 1625 4666 
z
" transform="scale(0.015625)"/>
       </defs>
       <use xlink:href="#DejaVuSans-49"/>
       <use xlink:href="#DejaVuSans-6e" x="29.492188"/>
       <use xlink:href="#DejaVuSans-73" x="92.871094"/>
       <use xlink:href="#DejaVuSans-69" x="144.970703"/>
       <use xlink:href="#DejaVuSans-64" x="172.753906"/>
       <use xlink:href="#DejaVuSans-65" x="236.230469"/>
       <use xlink:href="#DejaVuSans-20" x="297.753906"/>
       <use xlink:href="#DejaVuSans-74" x="329.541016"/>
       <use xlink:href="#DejaVuSans-68" x="368.75"/>
       <use xlink:href="#DejaVuSans-65" x="432.128906"/>
       <use xlink:href="#DejaVuSans-20" x="493.652344"/>
       <use xlink:href="#DejaVuSans-7a" x="525.439453"/>
       <use xlink:href="#DejaVuSans-6f" x="577.929688"/>
       <use xlink:href="#DejaVuSans-6e" x="639.111328"/>
       <use xlink:href="#DejaVuSans-65" x="702.490234"/>
       <use xlink:href="#DejaVuSans-20" x="764.013672"/>
       <use xlink:href="#DejaVuSans-28" x="795.800781"/>
       <use xlink:href="#DejaVuSans-79" x="834.814453"/>
       <use xlink:href="#DejaVuSans-65" x="893.994141"/>
       <use xlink:href="#DejaVuSans-73" x="955.517578"/>
       <use xlink:href="#DejaVuSans-2f" x="1007.617188"/>
       <use xlink:href="#DejaVuSans-6e" x="1041.308594"/>
       <use xlink:href="#DejaVuSans-6f" x="1104.6875"/>
       <use xlink:href="#DejaVuSans-29" x="1165.869141"/>
      </g>
     </g>
    </g>
    <g id="ytick_7">
     <g id="line2d_13">
      <g>
       <use xlink:href="#mf0df4714a8" x="361.6275" y="50.338852" style="stroke: #000000; stroke-width: 0.8"/>
      </g>
     </g>
     <g id="text_11">
      <!-- Distance to the congestion zone (miles) -->
      <g transform="translate(155.42125 54.138071) scale(0.1 -0.1)">
       <defs>
        <path id="DejaVuSans-44" d="M 1259 4147 
L 1259 519 
L 2022 519 
Q 2988 519 3436 956 
Q 3884 1394 3884 2338 
Q 3884 3275 3436 3711 
Q 2988 4147 2022 4147 
L 1259 4147 
z
M 628 4666 
L 1925 4666 
Q 3281 4666 3915 4102 
Q 4550 3538 4550 2338 
Q 4550 1131 3912 565 
Q 3275 0 1925 0 
L 628 0 
L 628 4666 
z
" transform="scale(0.015625)"/>
       </defs>
       <use xlink:href="#DejaVuSans-44"/>
       <use xlink:href="#DejaVuSans-69" x="77.001953"/>
       <use xlink:href="#DejaVuSans-73" x="104.785156"/>
       <use xlink:href="#DejaVuSans-74" x="156.884766"/>
       <use xlink:href="#DejaVuSans-61" x="196.09375"/>
       <use xlink:href="#DejaVuSans-6e" x="257.373047"/>
       <use xlink:href="#DejaVuSans-63" x="320.751953"/>
       <use xlink:href="#DejaVuSans-65" x="375.732422"/>
       <use xlink:href="#DejaVuSans-20" x="437.255859"/>
       <use xlink:href="#DejaVuSans-74" x="469.042969"/>
       <use xlink:href="#DejaVuSans-6f" x="508.251953"/>
       <use xlink:href="#DejaVuSans-20" x="569.433594"/>
       <use xlink:href="#DejaVuSans-74" x="601.220703"/>
       <use xlink:href="#DejaVuSans-68" x="640.429688"/>
       <use xlink:href="#DejaVuSans-65" x="703.808594"/>
       <use xlink:href="#DejaVuSans-20" x="765.332031"/>
       <use xlink:href="#DejaVuSans-63" x="797.119141"/>
       <use xlink:href="#DejaVuSans-6f" x="852.099609"/>
       <use xlink:href="#DejaVuSans-6e" x="913.28125"/>
       <use xlink:href="#DejaVuSans-67" x="976.660156"/>
       <use xlink:href="#DejaVuSans-65" x="1040.136719"/>
       <use xlink:href="#DejaVuSans-73" x="1101.660156"/>
       <use xlink:href="#DejaVuSans-74" x="1153.759766"/>
       <use xlink:href="#DejaVuSans-69" x="1192.96875"/>
       <use xlink:href="#DejaVuSans-6f" x="1220.751953"/>
       <use xlink:href="#DejaVuSans-6e" x="1281.933594"/>
       <use xlink:href="#DejaVuSans-20" x="1345.3125"/>
       <use xlink:href="#DejaVuSans-7a" x="1377.099609"/>
       <use xlink:href="#DejaVuSans-6f" x="1429.589844"/>
       <use xlink:href="#DejaVuSans-6e" x="1490.771484"/>
       <use xlink:href="#DejaVuSans-65" x="1554.150391"/>
       <use xlink:href="#DejaVuSans-20" x="1615.673828"/>
       <use xlink:href="#DejaVuSans-28" x="1647.460938"/>
       <use xlink:href="#DejaVuSans-6d" x="1686.474609"/>
       <use xlink:href="#DejaVuSans-69" x="1783.886719"/>
       <use xlink:href="#DejaVuSans-6c" x="1811.669922"/>
       <use xlink:href="#DejaVuSans-65" x="1839.453125"/>
       <use xlink:href="#DejaVuSans-73" x="1900.976562"/>
       <use xlink:href="#DejaVuSans-29" x="1953.076172"/>
      </g>
     </g>
    </g>
   </g>
   <g id="LineCollection_1">
    <path d="M 391.391684 290.753398 
L 392.330323 290.753398 
" clip-path="url(#p0f4d4821cf)" style="fill: none; stroke: #444444"/>
    <path d="M 392.095841 250.684307 
L 392.772924 250.684307 
" clip-path="url(#p0f4d4821cf)" style="fill: none; stroke: #444444"/>
    <path d="M 421.195276 210.615216 
L 512.946818 210.615216 
" clip-path="url(#p0f4d4821cf)" style="fill: none; stroke: #444444"/>
    <path d="M 414.153272 170.546125 
L 475.55501 170.546125 
" clip-path="url(#p0f4d4821cf)" style="fill: none; stroke: #444444"/>
    <path d="M 390.430601 130.477034 
L 414.360517 130.477034 
" clip-path="url(#p0f4d4821cf)" style="fill: none; stroke: #444444"/>
    <path d="M 368.833182 90.407943 
L 393.150898 90.407943 
" clip-path="url(#p0f4d4821cf)" style="fill: none; stroke: #444444"/>
    <path d="M 397.240623 50.338852 
L 400.798639 50.338852 
" clip-path="url(#p0f4d4821cf)" style="fill: none; stroke: #444444"/>
   </g>
   <g id="line2d_14">
    <defs>
     <path id="m96d60ae385" d="M 0 4 
L 0 -4 
" style="stroke: #444444"/>
    </defs>
    <g clip-path="url(#p0f4d4821cf)">
     <use xlink:href="#m96d60ae385" x="391.391684" y="290.753398" style="fill: #444444; stroke: #444444"/>
     <use xlink:href="#m96d60ae385" x="392.095841" y="250.684307" style="fill: #444444; stroke: #444444"/>
     <use xlink:href="#m96d60ae385" x="421.195276" y="210.615216" style="fill: #444444; stroke: #444444"/>
     <use xlink:href="#m96d60ae385" x="414.153272" y="170.546125" style="fill: #444444; stroke: #444444"/>
     <use xlink:href="#m96d60ae385" x="390.430601" y="130.477034" style="fill: #444444; stroke: #444444"/>
     <use xlink:href="#m96d60ae385" x="368.833182" y="90.407943" style="fill: #444444; stroke: #444444"/>
     <use xlink:href="#m96d60ae385" x="397.240623" y="50.338852" style="fill: #444444; stroke: #444444"/>
    </g>
   </g>
   <g id="line2d_15">
    <g clip-path="url(#p0f4d4821cf)">
     <use xlink:href="#m96d60ae385" x="392.330323" y="290.753398" style="fill: #444444; stroke: #444444"/>
     <use xlink:href="#m96d60ae385" x="392.772924" y="250.684307" style="fill: #444444; stroke: #444444"/>
     <use xlink:href="#m96d60ae385" x="512.946818" y="210.615216" style="fill: #444444; stroke: #444444"/>
     <use xlink:href="#m96d60ae385" x="475.55501" y="170.546125" style="fill: #444444; stroke: #444444"/>
     <use xlink:href="#m96d60ae385" x="414.360517" y="130.477034" style="fill: #444444; stroke: #444444"/>
     <use xlink:href="#m96d60ae385" x="393.150898" y="90.407943" style="fill: #444444; stroke: #444444"/>
     <use xlink:href="#m96d60ae385" x="400.798639" y="50.338852" style="fill: #444444; stroke: #444444"/>
    </g>
   </g>
   <g id="line2d_16">
    <path d="M 392.244139 302.774125 
L 392.244139 38.318125 
" clip-path="url(#p0f4d4821cf)" style="fill: none; stroke-dasharray: 2.96,1.28; stroke-dashoffset: 0; stroke: #000000; stroke-width: 0.8"/>
   </g>
   <g id="line2d_17">
    <defs>
     <path id="m695fdc1c98" d="M 0 3 
C 0.795609 3 1.55874 2.683901 2.12132 2.12132 
C 2.683901 1.55874 3 0.795609 3 0 
C 3 -0.795609 2.683901 -1.55874 2.12132 -2.12132 
C 1.55874 -2.683901 0.795609 -3 0 -3 
C -0.795609 -3 -1.55874 -2.683901 -2.12132 -2.12132 
C -2.683901 -1.55874 -3 -0.795609 -3 0 
C -3 0.795609 -2.683901 1.55874 -2.12132 2.12132 
C -1.55874 2.683901 -0.795609 3 0 3 
z
" style="stroke: #000000"/>
    </defs>
    <g clip-path="url(#p0f4d4821cf)">
     <use xlink:href="#m695fdc1c98" x="391.861003" y="290.753398" style="stroke: #000000"/>
     <use xlink:href="#m695fdc1c98" x="392.434383" y="250.684307" style="stroke: #000000"/>
     <use xlink:href="#m695fdc1c98" x="467.071047" y="210.615216" style="stroke: #000000"/>
     <use xlink:href="#m695fdc1c98" x="444.854141" y="170.546125" style="stroke: #000000"/>
     <use xlink:href="#m695fdc1c98" x="402.395559" y="130.477034" style="stroke: #000000"/>
     <use xlink:href="#m695fdc1c98" x="380.99204" y="90.407943" style="stroke: #000000"/>
     <use xlink:href="#m695fdc1c98" x="399.019631" y="50.338852" style="stroke: #000000"/>
    </g>
   </g>
   <g id="patch_3">
    <path d="M 361.6275 302.774125 
L 361.6275 38.318125 
" style="fill: none; stroke: #000000; stroke-width: 0.8; stroke-linejoin: miter; stroke-linecap: square"/>
   </g>
   <g id="patch_4">
    <path d="M 361.6275 302.774125 
L 520.1525 302.774125 
" style="fill: none; stroke: #000000; stroke-width: 0.8; stroke-linejoin: miter; stroke-linecap: square"/>
   </g>
   <g id="text_12">
    <!-- β=-0.04 -->
    <g style="fill: #222222" transform="translate(398.094868 292.985898) scale(0.08 -0.08)">
     <defs>
      <path id="DejaVuSans-3b2" d="M 1178 216 
L 1178 -1331 
L 600 -1331 
L 600 3478 
Q 600 4903 1931 4903 
Q 3288 4903 3288 3700 
Q 3288 2844 2750 2531 
Q 3625 2250 3625 1416 
Q 3625 -66 2119 -66 
Q 1456 -66 1178 216 
z
M 1178 966 
Q 1525 425 2141 425 
Q 3041 425 3041 1406 
Q 3041 2288 1591 2219 
L 1591 2750 
Q 2725 2750 2725 3750 
Q 2725 4434 1994 4434 
Q 1178 4434 1178 3459 
L 1178 966 
z
" transform="scale(0.015625)"/>
      <path id="DejaVuSans-2d" d="M 313 2009 
L 1997 2009 
L 1997 1497 
L 313 1497 
L 313 2009 
z
" transform="scale(0.015625)"/>
      <path id="DejaVuSans-2e" d="M 684 794 
L 1344 794 
L 1344 0 
L 684 0 
L 684 794 
z
" transform="scale(0.015625)"/>
      <path id="DejaVuSans-34" d="M 2419 4116 
L 825 1625 
L 2419 1625 
L 2419 4116 
z
M 2253 4666 
L 3047 4666 
L 3047 1625 
L 3713 1625 
L 3713 1100 
L 3047 1100 
L 3047 0 
L 2419 0 
L 2419 1100 
L 313 1100 
L 313 1709 
L 2253 4666 
z
" transform="scale(0.015625)"/>
     </defs>
     <use xlink:href="#DejaVuSans-3b2"/>
     <use xlink:href="#DejaVuSans-3d" x="63.818359"/>
     <use xlink:href="#DejaVuSans-2d" x="147.607422"/>
     <use xlink:href="#DejaVuSans-30" x="183.691406"/>
     <use xlink:href="#DejaVuSans-2e" x="247.314453"/>
     <use xlink:href="#DejaVuSans-30" x="279.101562"/>
     <use xlink:href="#DejaVuSans-34" x="342.724609"/>
    </g>
   </g>
   <g id="text_13">
    <!-- β=0.02 -->
    <g style="fill: #222222" transform="translate(398.53747 252.916807) scale(0.08 -0.08)">
     <defs>
      <path id="DejaVuSans-32" d="M 1228 531 
L 3431 531 
L 3431 0 
L 469 0 
L 469 531 
Q 828 903 1448 1529 
Q 2069 2156 2228 2338 
Q 2531 2678 2651 2914 
Q 2772 3150 2772 3378 
Q 2772 3750 2511 3984 
Q 2250 4219 1831 4219 
Q 1534 4219 1204 4116 
Q 875 4013 500 3803 
L 500 4441 
Q 881 4594 1212 4672 
Q 1544 4750 1819 4750 
Q 2544 4750 2975 4387 
Q 3406 4025 3406 3419 
Q 3406 3131 3298 2873 
Q 3191 2616 2906 2266 
Q 2828 2175 2409 1742 
Q 1991 1309 1228 531 
z
" transform="scale(0.015625)"/>
     </defs>
     <use xlink:href="#DejaVuSans-3b2"/>
     <use xlink:href="#DejaVuSans-3d" x="63.818359"/>
     <use xlink:href="#DejaVuSans-30" x="147.607422"/>
     <use xlink:href="#DejaVuSans-2e" x="211.230469"/>
     <use xlink:href="#DejaVuSans-30" x="243.017578"/>
     <use xlink:href="#DejaVuSans-32" x="306.640625"/>
    </g>
   </g>
   <g id="text_14">
    <!-- β=8.61 ** -->
    <g style="fill: #222222" transform="translate(518.711364 212.847716) scale(0.08 -0.08)">
     <defs>
      <path id="DejaVuSans-38" d="M 2034 2216 
Q 1584 2216 1326 1975 
Q 1069 1734 1069 1313 
Q 1069 891 1326 650 
Q 1584 409 2034 409 
Q 2484 409 2743 651 
Q 3003 894 3003 1313 
Q 3003 1734 2745 1975 
Q 2488 2216 2034 2216 
z
M 1403 2484 
Q 997 2584 770 2862 
Q 544 3141 544 3541 
Q 544 4100 942 4425 
Q 1341 4750 2034 4750 
Q 2731 4750 3128 4425 
Q 3525 4100 3525 3541 
Q 3525 3141 3298 2862 
Q 3072 2584 2669 2484 
Q 3125 2378 3379 2068 
Q 3634 1759 3634 1313 
Q 3634 634 3220 271 
Q 2806 -91 2034 -91 
Q 1263 -91 848 271 
Q 434 634 434 1313 
Q 434 1759 690 2068 
Q 947 2378 1403 2484 
z
M 1172 3481 
Q 1172 3119 1398 2916 
Q 1625 2713 2034 2713 
Q 2441 2713 2670 2916 
Q 2900 3119 2900 3481 
Q 2900 3844 2670 4047 
Q 2441 4250 2034 4250 
Q 1625 4250 1398 4047 
Q 1172 3844 1172 3481 
z
" transform="scale(0.015625)"/>
      <path id="DejaVuSans-36" d="M 2113 2584 
Q 1688 2584 1439 2293 
Q 1191 2003 1191 1497 
Q 1191 994 1439 701 
Q 1688 409 2113 409 
Q 2538 409 2786 701 
Q 3034 994 3034 1497 
Q 3034 2003 2786 2293 
Q 2538 2584 2113 2584 
z
M 3366 4563 
L 3366 3988 
Q 3128 4100 2886 4159 
Q 2644 4219 2406 4219 
Q 1781 4219 1451 3797 
Q 1122 3375 1075 2522 
Q 1259 2794 1537 2939 
Q 1816 3084 2150 3084 
Q 2853 3084 3261 2657 
Q 3669 2231 3669 1497 
Q 3669 778 3244 343 
Q 2819 -91 2113 -91 
Q 1303 -91 875 529 
Q 447 1150 447 2328 
Q 447 3434 972 4092 
Q 1497 4750 2381 4750 
Q 2619 4750 2861 4703 
Q 3103 4656 3366 4563 
z
" transform="scale(0.015625)"/>
      <path id="DejaVuSans-2a" d="M 3009 3897 
L 1888 3291 
L 3009 2681 
L 2828 2375 
L 1778 3009 
L 1778 1831 
L 1422 1831 
L 1422 3009 
L 372 2375 
L 191 2681 
L 1313 3291 
L 191 3897 
L 372 4206 
L 1422 3572 
L 1422 4750 
L 1778 4750 
L 1778 3572 
L 2828 4206 
L 3009 3897 
z
" transform="scale(0.015625)"/>
     </defs>
     <use xlink:href="#DejaVuSans-3b2"/>
     <use xlink:href="#DejaVuSans-3d" x="63.818359"/>
     <use xlink:href="#DejaVuSans-38" x="147.607422"/>
     <use xlink:href="#DejaVuSans-2e" x="211.230469"/>
     <use xlink:href="#DejaVuSans-36" x="243.017578"/>
     <use xlink:href="#DejaVuSans-31" x="306.640625"/>
     <use xlink:href="#DejaVuSans-20" x="370.263672"/>
     <use xlink:href="#DejaVuSans-2a" x="402.050781"/>
     <use xlink:href="#DejaVuSans-2a" x="452.050781"/>
    </g>
   </g>
   <g id="text_15">
    <!-- β=6.05 *** -->
    <g style="fill: #222222" transform="translate(481.319555 172.778625) scale(0.08 -0.08)">
     <use xlink:href="#DejaVuSans-3b2"/>
     <use xlink:href="#DejaVuSans-3d" x="63.818359"/>
     <use xlink:href="#DejaVuSans-36" x="147.607422"/>
     <use xlink:href="#DejaVuSans-2e" x="211.230469"/>
     <use xlink:href="#DejaVuSans-30" x="243.017578"/>
     <use xlink:href="#DejaVuSans-35" x="306.640625"/>
     <use xlink:href="#DejaVuSans-20" x="370.263672"/>
     <use xlink:href="#DejaVuSans-2a" x="402.050781"/>
     <use xlink:href="#DejaVuSans-2a" x="452.050781"/>
     <use xlink:href="#DejaVuSans-2a" x="502.050781"/>
    </g>
   </g>
   <g id="text_16">
    <!-- β=1.17 -->
    <g style="fill: #222222" transform="translate(420.125062 132.709534) scale(0.08 -0.08)">
     <defs>
      <path id="DejaVuSans-37" d="M 525 4666 
L 3525 4666 
L 3525 4397 
L 1831 0 
L 1172 0 
L 2766 4134 
L 525 4134 
L 525 4666 
z
" transform="scale(0.015625)"/>
     </defs>
     <use xlink:href="#DejaVuSans-3b2"/>
     <use xlink:href="#DejaVuSans-3d" x="63.818359"/>
     <use xlink:href="#DejaVuSans-31" x="147.607422"/>
     <use xlink:href="#DejaVuSans-2e" x="211.230469"/>
     <use xlink:href="#DejaVuSans-31" x="243.017578"/>
     <use xlink:href="#DejaVuSans-37" x="306.640625"/>
    </g>
   </g>
   <g id="text_17">
    <!-- β=-1.29 -->
    <g style="fill: #222222" transform="translate(398.915444 92.640443) scale(0.08 -0.08)">
     <defs>
      <path id="DejaVuSans-39" d="M 703 97 
L 703 672 
Q 941 559 1184 500 
Q 1428 441 1663 441 
Q 2288 441 2617 861 
Q 2947 1281 2994 2138 
Q 2813 1869 2534 1725 
Q 2256 1581 1919 1581 
Q 1219 1581 811 2004 
Q 403 2428 403 3163 
Q 403 3881 828 4315 
Q 1253 4750 1959 4750 
Q 2769 4750 3195 4129 
Q 3622 3509 3622 2328 
Q 3622 1225 3098 567 
Q 2575 -91 1691 -91 
Q 1453 -91 1209 -44 
Q 966 3 703 97 
z
M 1959 2075 
Q 2384 2075 2632 2365 
Q 2881 2656 2881 3163 
Q 2881 3666 2632 3958 
Q 2384 4250 1959 4250 
Q 1534 4250 1286 3958 
Q 1038 3666 1038 3163 
Q 1038 2656 1286 2365 
Q 1534 2075 1959 2075 
z
" transform="scale(0.015625)"/>
     </defs>
     <use xlink:href="#DejaVuSans-3b2"/>
     <use xlink:href="#DejaVuSans-3d" x="63.818359"/>
     <use xlink:href="#DejaVuSans-2d" x="147.607422"/>
     <use xlink:href="#DejaVuSans-31" x="183.691406"/>
     <use xlink:href="#DejaVuSans-2e" x="247.314453"/>
     <use xlink:href="#DejaVuSans-32" x="279.101562"/>
     <use xlink:href="#DejaVuSans-39" x="342.724609"/>
    </g>
   </g>
   <g id="text_18">
    <!-- β=0.78 *** -->
    <g style="fill: #222222" transform="translate(406.563184 52.571352) scale(0.08 -0.08)">
     <use xlink:href="#DejaVuSans-3b2"/>
     <use xlink:href="#DejaVuSans-3d" x="63.818359"/>
     <use xlink:href="#DejaVuSans-30" x="147.607422"/>
     <use xlink:href="#DejaVuSans-2e" x="211.230469"/>
     <use xlink:href="#DejaVuSans-37" x="243.017578"/>
     <use xlink:href="#DejaVuSans-38" x="306.640625"/>
     <use xlink:href="#DejaVuSans-20" x="370.263672"/>
     <use xlink:href="#DejaVuSans-2a" x="402.050781"/>
     <use xlink:href="#DejaVuSans-2a" x="452.050781"/>
     <use xlink:href="#DejaVuSans-2a" x="502.050781"/>
    </g>
   </g>
   <g id="text_19">
    <!-- Statistical model showing which neighborhood traits predicted larger air-quality improvements -->
    <g style="fill: #444444" transform="translate(227.443047 35.144653) scale(0.09 -0.09)">
     <defs>
      <path id="DejaVuSans-71" d="M 947 1747 
Q 947 1113 1208 752 
Q 1469 391 1925 391 
Q 2381 391 2643 752 
Q 2906 1113 2906 1747 
Q 2906 2381 2643 2742 
Q 2381 3103 1925 3103 
Q 1469 3103 1208 2742 
Q 947 2381 947 1747 
z
M 2906 525 
Q 2725 213 2448 61 
Q 2172 -91 1784 -91 
Q 1150 -91 751 415 
Q 353 922 353 1747 
Q 353 2572 751 3078 
Q 1150 3584 1784 3584 
Q 2172 3584 2448 3432 
Q 2725 3281 2906 2969 
L 2906 3500 
L 3481 3500 
L 3481 -1331 
L 2906 -1331 
L 2906 525 
z
" transform="scale(0.015625)"/>
      <path id="DejaVuSans-76" d="M 191 3500 
L 800 3500 
L 1894 563 
L 2988 3500 
L 3597 3500 
L 2284 0 
L 1503 0 
L 191 3500 
z
" transform="scale(0.015625)"/>
     </defs>
     <use xlink:href="#DejaVuSans-53"/>
     <use xlink:href="#DejaVuSans-74" x="63.476562"/>
     <use xlink:href="#DejaVuSans-61" x="102.685547"/>
     <use xlink:href="#DejaVuSans-74" x="163.964844"/>
     <use xlink:href="#DejaVuSans-69" x="203.173828"/>
     <use xlink:href="#DejaVuSans-73" x="230.957031"/>
     <use xlink:href="#DejaVuSans-74" x="283.056641"/>
     <use xlink:href="#DejaVuSans-69" x="322.265625"/>
     <use xlink:href="#DejaVuSans-63" x="350.048828"/>
     <use xlink:href="#DejaVuSans-61" x="405.029297"/>
     <use xlink:href="#DejaVuSans-6c" x="466.308594"/>
     <use xlink:href="#DejaVuSans-20" x="494.091797"/>
     <use xlink:href="#DejaVuSans-6d" x="525.878906"/>
     <use xlink:href="#DejaVuSans-6f" x="623.291016"/>
     <use xlink:href="#DejaVuSans-64" x="684.472656"/>
     <use xlink:href="#DejaVuSans-65" x="747.949219"/>
     <use xlink:href="#DejaVuSans-6c" x="809.472656"/>
     <use xlink:href="#DejaVuSans-20" x="837.255859"/>
     <use xlink:href="#DejaVuSans-73" x="869.042969"/>
     <use xlink:href="#DejaVuSans-68" x="921.142578"/>
     <use xlink:href="#DejaVuSans-6f" x="984.521484"/>
     <use xlink:href="#DejaVuSans-77" x="1045.703125"/>
     <use xlink:href="#DejaVuSans-69" x="1127.490234"/>
     <use xlink:href="#DejaVuSans-6e" x="1155.273438"/>
     <use xlink:href="#DejaVuSans-67" x="1218.652344"/>
     <use xlink:href="#DejaVuSans-20" x="1282.128906"/>
     <use xlink:href="#DejaVuSans-77" x="1313.916016"/>
     <use xlink:href="#DejaVuSans-68" x="1395.703125"/>
     <use xlink:href="#DejaVuSans-69" x="1459.082031"/>
     <use xlink:href="#DejaVuSans-63" x="1486.865234"/>
     <use xlink:href="#DejaVuSans-68" x="1541.845703"/>
     <use xlink:href="#DejaVuSans-20" x="1605.224609"/>
     <use xlink:href="#DejaVuSans-6e" x="1637.011719"/>
     <use xlink:href="#DejaVuSans-65" x="1700.390625"/>
     <use xlink:href="#DejaVuSans-69" x="1761.914062"/>
     <use xlink:href="#DejaVuSans-67" x="1789.697266"/>
     <use xlink:href="#DejaVuSans-68" x="1853.173828"/>
     <use xlink:href="#DejaVuSans-62" x="1916.552734"/>
     <use xlink:href="#DejaVuSans-6f" x="1980.029297"/>
     <use xlink:href="#DejaVuSans-72" x="2041.210938"/>
     <use xlink:href="#DejaVuSans-68" x="2080.574219"/>
     <use xlink:href="#DejaVuSans-6f" x="2143.953125"/>
     <use xlink:href="#DejaVuSans-6f" x="2205.134766"/>
     <use xlink:href="#DejaVuSans-64" x="2266.316406"/>
     <use xlink:href="#DejaVuSans-20" x="2329.792969"/>
     <use xlink:href="#DejaVuSans-74" x="2361.580078"/>
     <use xlink:href="#DejaVuSans-72" x="2400.789062"/>
     <use xlink:href="#DejaVuSans-61" x="2441.902344"/>
     <use xlink:href="#DejaVuSans-69" x="2503.181641"/>
     <use xlink:href="#DejaVuSans-74" x="2530.964844"/>
     <use xlink:href="#DejaVuSans-73" x="2570.173828"/>
     <use xlink:href="#DejaVuSans-20" x="2622.273438"/>
     <use xlink:href="#DejaVuSans-70" x="2654.060547"/>
     <use xlink:href="#DejaVuSans-72" x="2717.537109"/>
     <use xlink:href="#DejaVuSans-65" x="2756.400391"/>
     <use xlink:href="#DejaVuSans-64" x="2817.923828"/>
     <use xlink:href="#DejaVuSans-69" x="2881.400391"/>
     <use xlink:href="#DejaVuSans-63" x="2909.183594"/>
     <use xlink:href="#DejaVuSans-74" x="2964.164062"/>
     <use xlink:href="#DejaVuSans-65" x="3003.373047"/>
     <use xlink:href="#DejaVuSans-64" x="3064.896484"/>
     <use xlink:href="#DejaVuSans-20" x="3128.373047"/>
     <use xlink:href="#DejaVuSans-6c" x="3160.160156"/>
     <use xlink:href="#DejaVuSans-61" x="3187.943359"/>
     <use xlink:href="#DejaVuSans-72" x="3249.222656"/>
     <use xlink:href="#DejaVuSans-67" x="3288.585938"/>
     <use xlink:href="#DejaVuSans-65" x="3352.0625"/>
     <use xlink:href="#DejaVuSans-72" x="3413.585938"/>
     <use xlink:href="#DejaVuSans-20" x="3454.699219"/>
     <use xlink:href="#DejaVuSans-61" x="3486.486328"/>
     <use xlink:href="#DejaVuSans-69" x="3547.765625"/>
     <use xlink:href="#DejaVuSans-72" x="3575.548828"/>
     <use xlink:href="#DejaVuSans-2d" x="3610.287109"/>
     <use xlink:href="#DejaVuSans-71" x="3646.371094"/>
     <use xlink:href="#DejaVuSans-75" x="3709.847656"/>
     <use xlink:href="#DejaVuSans-61" x="3773.226562"/>
     <use xlink:href="#DejaVuSans-6c" x="3834.505859"/>
     <use xlink:href="#DejaVuSans-69" x="3862.289062"/>
     <use xlink:href="#DejaVuSans-74" x="3890.072266"/>
     <use xlink:href="#DejaVuSans-79" x="3929.28125"/>
     <use xlink:href="#DejaVuSans-20" x="3988.460938"/>
     <use xlink:href="#DejaVuSans-69" x="4020.248047"/>
     <use xlink:href="#DejaVuSans-6d" x="4048.03125"/>
     <use xlink:href="#DejaVuSans-70" x="4145.443359"/>
     <use xlink:href="#DejaVuSans-72" x="4208.919922"/>
     <use xlink:href="#DejaVuSans-6f" x="4247.783203"/>
     <use xlink:href="#DejaVuSans-76" x="4308.964844"/>
     <use xlink:href="#DejaVuSans-65" x="4368.144531"/>
     <use xlink:href="#DejaVuSans-6d" x="4429.667969"/>
     <use xlink:href="#DejaVuSans-65" x="4527.080078"/>
     <use xlink:href="#DejaVuSans-6e" x="4588.603516"/>
     <use xlink:href="#DejaVuSans-74" x="4651.982422"/>
     <use xlink:href="#DejaVuSans-73" x="4691.191406"/>
    </g>
   </g>
   <g id="text_20">
    <!-- What's linked to bigger pollution drops? -->
    <g transform="translate(304.849375 16.318125) scale(0.12 -0.12)">
     <defs>
      <path id="DejaVuSans-Bold-57" d="M 191 4666 
L 1344 4666 
L 2150 1275 
L 2950 4666 
L 4109 4666 
L 4909 1275 
L 5716 4666 
L 6859 4666 
L 5759 0 
L 4372 0 
L 3525 3547 
L 2688 0 
L 1300 0 
L 191 4666 
z
" transform="scale(0.015625)"/>
      <path id="DejaVuSans-Bold-68" d="M 4056 2131 
L 4056 0 
L 2931 0 
L 2931 347 
L 2931 1625 
Q 2931 2084 2911 2256 
Q 2891 2428 2841 2509 
Q 2775 2619 2662 2680 
Q 2550 2741 2406 2741 
Q 2056 2741 1856 2470 
Q 1656 2200 1656 1722 
L 1656 0 
L 538 0 
L 538 4863 
L 1656 4863 
L 1656 2988 
Q 1909 3294 2193 3439 
Q 2478 3584 2822 3584 
Q 3428 3584 3742 3212 
Q 4056 2841 4056 2131 
z
" transform="scale(0.015625)"/>
      <path id="DejaVuSans-Bold-61" d="M 2106 1575 
Q 1756 1575 1579 1456 
Q 1403 1338 1403 1106 
Q 1403 894 1545 773 
Q 1688 653 1941 653 
Q 2256 653 2472 879 
Q 2688 1106 2688 1447 
L 2688 1575 
L 2106 1575 
z
M 3816 1997 
L 3816 0 
L 2688 0 
L 2688 519 
Q 2463 200 2181 54 
Q 1900 -91 1497 -91 
Q 953 -91 614 226 
Q 275 544 275 1050 
Q 275 1666 698 1953 
Q 1122 2241 2028 2241 
L 2688 2241 
L 2688 2328 
Q 2688 2594 2478 2717 
Q 2269 2841 1825 2841 
Q 1466 2841 1156 2769 
Q 847 2697 581 2553 
L 581 3406 
Q 941 3494 1303 3539 
Q 1666 3584 2028 3584 
Q 2975 3584 3395 3211 
Q 3816 2838 3816 1997 
z
" transform="scale(0.015625)"/>
      <path id="DejaVuSans-Bold-74" d="M 1759 4494 
L 1759 3500 
L 2913 3500 
L 2913 2700 
L 1759 2700 
L 1759 1216 
Q 1759 972 1856 886 
Q 1953 800 2241 800 
L 2816 800 
L 2816 0 
L 1856 0 
Q 1194 0 917 276 
Q 641 553 641 1216 
L 641 2700 
L 84 2700 
L 84 3500 
L 641 3500 
L 641 4494 
L 1759 4494 
z
" transform="scale(0.015625)"/>
      <path id="DejaVuSans-Bold-27" d="M 1350 4666 
L 1350 2931 
L 609 2931 
L 609 4666 
L 1350 4666 
z
" transform="scale(0.015625)"/>
      <path id="DejaVuSans-Bold-73" d="M 3272 3391 
L 3272 2541 
Q 2913 2691 2578 2766 
Q 2244 2841 1947 2841 
Q 1628 2841 1473 2761 
Q 1319 2681 1319 2516 
Q 1319 2381 1436 2309 
Q 1553 2238 1856 2203 
L 2053 2175 
Q 2913 2066 3209 1816 
Q 3506 1566 3506 1031 
Q 3506 472 3093 190 
Q 2681 -91 1863 -91 
Q 1516 -91 1145 -36 
Q 775 19 384 128 
L 384 978 
Q 719 816 1070 734 
Q 1422 653 1784 653 
Q 2113 653 2278 743 
Q 2444 834 2444 1013 
Q 2444 1163 2330 1236 
Q 2216 1309 1875 1350 
L 1678 1375 
Q 931 1469 631 1722 
Q 331 1975 331 2491 
Q 331 3047 712 3315 
Q 1094 3584 1881 3584 
Q 2191 3584 2531 3537 
Q 2872 3491 3272 3391 
z
" transform="scale(0.015625)"/>
      <path id="DejaVuSans-Bold-20" transform="scale(0.015625)"/>
      <path id="DejaVuSans-Bold-6c" d="M 538 4863 
L 1656 4863 
L 1656 0 
L 538 0 
L 538 4863 
z
" transform="scale(0.015625)"/>
      <path id="DejaVuSans-Bold-69" d="M 538 3500 
L 1656 3500 
L 1656 0 
L 538 0 
L 538 3500 
z
M 538 4863 
L 1656 4863 
L 1656 3950 
L 538 3950 
L 538 4863 
z
" transform="scale(0.015625)"/>
      <path id="DejaVuSans-Bold-6e" d="M 4056 2131 
L 4056 0 
L 2931 0 
L 2931 347 
L 2931 1631 
Q 2931 2084 2911 2256 
Q 2891 2428 2841 2509 
Q 2775 2619 2662 2680 
Q 2550 2741 2406 2741 
Q 2056 2741 1856 2470 
Q 1656 2200 1656 1722 
L 1656 0 
L 538 0 
L 538 3500 
L 1656 3500 
L 1656 2988 
Q 1909 3294 2193 3439 
Q 2478 3584 2822 3584 
Q 3428 3584 3742 3212 
Q 4056 2841 4056 2131 
z
" transform="scale(0.015625)"/>
      <path id="DejaVuSans-Bold-6b" d="M 538 4863 
L 1656 4863 
L 1656 2216 
L 2944 3500 
L 4244 3500 
L 2534 1894 
L 4378 0 
L 3022 0 
L 1656 1459 
L 1656 0 
L 538 0 
L 538 4863 
z
" transform="scale(0.015625)"/>
      <path id="DejaVuSans-Bold-65" d="M 4031 1759 
L 4031 1441 
L 1416 1441 
Q 1456 1047 1700 850 
Q 1944 653 2381 653 
Q 2734 653 3104 758 
Q 3475 863 3866 1075 
L 3866 213 
Q 3469 63 3072 -14 
Q 2675 -91 2278 -91 
Q 1328 -91 801 392 
Q 275 875 275 1747 
Q 275 2603 792 3093 
Q 1309 3584 2216 3584 
Q 3041 3584 3536 3087 
Q 4031 2591 4031 1759 
z
M 2881 2131 
Q 2881 2450 2695 2645 
Q 2509 2841 2209 2841 
Q 1884 2841 1681 2658 
Q 1478 2475 1428 2131 
L 2881 2131 
z
" transform="scale(0.015625)"/>
      <path id="DejaVuSans-Bold-64" d="M 2919 2988 
L 2919 4863 
L 4044 4863 
L 4044 0 
L 2919 0 
L 2919 506 
Q 2688 197 2409 53 
Q 2131 -91 1766 -91 
Q 1119 -91 703 423 
Q 288 938 288 1747 
Q 288 2556 703 3070 
Q 1119 3584 1766 3584 
Q 2128 3584 2408 3439 
Q 2688 3294 2919 2988 
z
M 2181 722 
Q 2541 722 2730 984 
Q 2919 1247 2919 1747 
Q 2919 2247 2730 2509 
Q 2541 2772 2181 2772 
Q 1825 2772 1636 2509 
Q 1447 2247 1447 1747 
Q 1447 1247 1636 984 
Q 1825 722 2181 722 
z
" transform="scale(0.015625)"/>
      <path id="DejaVuSans-Bold-6f" d="M 2203 2784 
Q 1831 2784 1636 2517 
Q 1441 2250 1441 1747 
Q 1441 1244 1636 976 
Q 1831 709 2203 709 
Q 2569 709 2762 976 
Q 2956 1244 2956 1747 
Q 2956 2250 2762 2517 
Q 2569 2784 2203 2784 
z
M 2203 3584 
Q 3106 3584 3614 3096 
Q 4122 2609 4122 1747 
Q 4122 884 3614 396 
Q 3106 -91 2203 -91 
Q 1297 -91 786 396 
Q 275 884 275 1747 
Q 275 2609 786 3096 
Q 1297 3584 2203 3584 
z
" transform="scale(0.015625)"/>
      <path id="DejaVuSans-Bold-62" d="M 2400 722 
Q 2759 722 2948 984 
Q 3138 1247 3138 1747 
Q 3138 2247 2948 2509 
Q 2759 2772 2400 2772 
Q 2041 2772 1848 2508 
Q 1656 2244 1656 1747 
Q 1656 1250 1848 986 
Q 2041 722 2400 722 
z
M 1656 2988 
Q 1888 3294 2169 3439 
Q 2450 3584 2816 3584 
Q 3463 3584 3878 3070 
Q 4294 2556 4294 1747 
Q 4294 938 3878 423 
Q 3463 -91 2816 -91 
Q 2450 -91 2169 54 
Q 1888 200 1656 506 
L 1656 0 
L 538 0 
L 538 4863 
L 1656 4863 
L 1656 2988 
z
" transform="scale(0.015625)"/>
      <path id="DejaVuSans-Bold-67" d="M 2919 594 
Q 2688 288 2409 144 
Q 2131 0 1766 0 
Q 1125 0 706 504 
Q 288 1009 288 1791 
Q 288 2575 706 3076 
Q 1125 3578 1766 3578 
Q 2131 3578 2409 3434 
Q 2688 3291 2919 2981 
L 2919 3500 
L 4044 3500 
L 4044 353 
Q 4044 -491 3511 -936 
Q 2978 -1381 1966 -1381 
Q 1638 -1381 1331 -1331 
Q 1025 -1281 716 -1178 
L 716 -306 
Q 1009 -475 1290 -558 
Q 1572 -641 1856 -641 
Q 2406 -641 2662 -400 
Q 2919 -159 2919 353 
L 2919 594 
z
M 2181 2772 
Q 1834 2772 1640 2515 
Q 1447 2259 1447 1791 
Q 1447 1309 1634 1061 
Q 1822 813 2181 813 
Q 2531 813 2725 1069 
Q 2919 1325 2919 1791 
Q 2919 2259 2725 2515 
Q 2531 2772 2181 2772 
z
" transform="scale(0.015625)"/>
      <path id="DejaVuSans-Bold-72" d="M 3138 2547 
Q 2991 2616 2845 2648 
Q 2700 2681 2553 2681 
Q 2122 2681 1889 2404 
Q 1656 2128 1656 1613 
L 1656 0 
L 538 0 
L 538 3500 
L 1656 3500 
L 1656 2925 
Q 1872 3269 2151 3426 
Q 2431 3584 2822 3584 
Q 2878 3584 2943 3579 
Q 3009 3575 3134 3559 
L 3138 2547 
z
" transform="scale(0.015625)"/>
      <path id="DejaVuSans-Bold-70" d="M 1656 506 
L 1656 -1331 
L 538 -1331 
L 538 3500 
L 1656 3500 
L 1656 2988 
Q 1888 3294 2169 3439 
Q 2450 3584 2816 3584 
Q 3463 3584 3878 3070 
Q 4294 2556 4294 1747 
Q 4294 938 3878 423 
Q 3463 -91 2816 -91 
Q 2450 -91 2169 54 
Q 1888 200 1656 506 
z
M 2400 2772 
Q 2041 2772 1848 2508 
Q 1656 2244 1656 1747 
Q 1656 1250 1848 986 
Q 2041 722 2400 722 
Q 2759 722 2948 984 
Q 3138 1247 3138 1747 
Q 3138 2247 2948 2509 
Q 2759 2772 2400 2772 
z
" transform="scale(0.015625)"/>
      <path id="DejaVuSans-Bold-75" d="M 500 1363 
L 500 3500 
L 1625 3500 
L 1625 3150 
Q 1625 2866 1622 2436 
Q 1619 2006 1619 1863 
Q 1619 1441 1641 1255 
Q 1663 1069 1716 984 
Q 1784 875 1895 815 
Q 2006 756 2150 756 
Q 2500 756 2700 1025 
Q 2900 1294 2900 1772 
L 2900 3500 
L 4019 3500 
L 4019 0 
L 2900 0 
L 2900 506 
Q 2647 200 2364 54 
Q 2081 -91 1741 -91 
Q 1134 -91 817 281 
Q 500 653 500 1363 
z
" transform="scale(0.015625)"/>
      <path id="DejaVuSans-Bold-3f" d="M 2216 1575 
L 1088 1575 
L 1088 1728 
Q 1088 1984 1191 2182 
Q 1294 2381 1625 2688 
L 1825 2869 
Q 2003 3031 2086 3175 
Q 2169 3319 2169 3463 
Q 2169 3681 2019 3804 
Q 1869 3928 1600 3928 
Q 1347 3928 1053 3823 
Q 759 3719 441 3513 
L 441 4494 
Q 819 4625 1131 4687 
Q 1444 4750 1734 4750 
Q 2497 4750 2897 4439 
Q 3297 4128 3297 3531 
Q 3297 3225 3175 2983 
Q 3053 2741 2759 2463 
L 2559 2284 
Q 2347 2091 2281 1973 
Q 2216 1856 2216 1716 
L 2216 1575 
z
M 1088 1113 
L 2216 1113 
L 2216 0 
L 1088 0 
L 1088 1113 
z
" transform="scale(0.015625)"/>
     </defs>
     <use xlink:href="#DejaVuSans-Bold-57"/>
     <use xlink:href="#DejaVuSans-Bold-68" x="110.302734"/>
     <use xlink:href="#DejaVuSans-Bold-61" x="181.494141"/>
     <use xlink:href="#DejaVuSans-Bold-74" x="248.974609"/>
     <use xlink:href="#DejaVuSans-Bold-27" x="296.777344"/>
     <use xlink:href="#DejaVuSans-Bold-73" x="327.392578"/>
     <use xlink:href="#DejaVuSans-Bold-20" x="386.914062"/>
     <use xlink:href="#DejaVuSans-Bold-6c" x="421.728516"/>
     <use xlink:href="#DejaVuSans-Bold-69" x="456.005859"/>
     <use xlink:href="#DejaVuSans-Bold-6e" x="490.283203"/>
     <use xlink:href="#DejaVuSans-Bold-6b" x="561.474609"/>
     <use xlink:href="#DejaVuSans-Bold-65" x="625.353516"/>
     <use xlink:href="#DejaVuSans-Bold-64" x="693.175781"/>
     <use xlink:href="#DejaVuSans-Bold-20" x="764.757812"/>
     <use xlink:href="#DejaVuSans-Bold-74" x="799.572266"/>
     <use xlink:href="#DejaVuSans-Bold-6f" x="847.375"/>
     <use xlink:href="#DejaVuSans-Bold-20" x="916.076172"/>
     <use xlink:href="#DejaVuSans-Bold-62" x="950.890625"/>
     <use xlink:href="#DejaVuSans-Bold-69" x="1022.472656"/>
     <use xlink:href="#DejaVuSans-Bold-67" x="1056.75"/>
     <use xlink:href="#DejaVuSans-Bold-67" x="1128.332031"/>
     <use xlink:href="#DejaVuSans-Bold-65" x="1199.914062"/>
     <use xlink:href="#DejaVuSans-Bold-72" x="1267.736328"/>
     <use xlink:href="#DejaVuSans-Bold-20" x="1317.052734"/>
     <use xlink:href="#DejaVuSans-Bold-70" x="1351.867188"/>
     <use xlink:href="#DejaVuSans-Bold-6f" x="1423.449219"/>
     <use xlink:href="#DejaVuSans-Bold-6c" x="1492.150391"/>
     <use xlink:href="#DejaVuSans-Bold-6c" x="1526.427734"/>
     <use xlink:href="#DejaVuSans-Bold-75" x="1560.705078"/>
     <use xlink:href="#DejaVuSans-Bold-74" x="1631.896484"/>
     <use xlink:href="#DejaVuSans-Bold-69" x="1679.699219"/>
     <use xlink:href="#DejaVuSans-Bold-6f" x="1713.976562"/>
     <use xlink:href="#DejaVuSans-Bold-6e" x="1782.677734"/>
     <use xlink:href="#DejaVuSans-Bold-20" x="1853.869141"/>
     <use xlink:href="#DejaVuSans-Bold-64" x="1888.683594"/>
     <use xlink:href="#DejaVuSans-Bold-72" x="1960.265625"/>
     <use xlink:href="#DejaVuSans-Bold-6f" x="2009.582031"/>
     <use xlink:href="#DejaVuSans-Bold-70" x="2078.283203"/>
     <use xlink:href="#DejaVuSans-Bold-73" x="2149.865234"/>
     <use xlink:href="#DejaVuSans-Bold-3f" x="2209.386719"/>
    </g>
   </g>
   <g id="PathCollection_1">
    <defs>
     <path id="md4e616be0f" d="M 0 4.472136 
C 1.186024 4.472136 2.323632 4.000923 3.162278 3.162278 
C 4.000923 2.323632 4.472136 1.186024 4.472136 0 
C 4.472136 -1.186024 4.000923 -2.323632 3.162278 -3.162278 
C 2.323632 -4.000923 1.186024 -4.472136 0 -4.472136 
C -1.186024 -4.472136 -2.323632 -4.000923 -3.162278 -3.162278 
C -4.000923 -2.323632 -4.472136 -1.186024 -4.472136 0 
C -4.472136 1.186024 -4.000923 2.323632 -3.162278 3.162278 
C -2.323632 4.000923 -1.186024 4.472136 0 4.472136 
z
" style="stroke: #888888"/>
    </defs>
    <g clip-path="url(#p0f4d4821cf)">
     <use xlink:href="#md4e616be0f" x="391.861003" y="290.753398" style="fill: #888888; stroke: #888888"/>
    </g>
   </g>
   <g id="PathCollection_2">
    <g clip-path="url(#p0f4d4821cf)">
     <use xlink:href="#md4e616be0f" x="392.434383" y="250.684307" style="fill: #888888; stroke: #888888"/>
    </g>
   </g>
   <g id="PathCollection_3">
    <defs>
     <path id="m7b6e7255a9" d="M 0 4.472136 
C 1.186024 4.472136 2.323632 4.000923 3.162278 3.162278 
C 4.000923 2.323632 4.472136 1.186024 4.472136 0 
C 4.472136 -1.186024 4.000923 -2.323632 3.162278 -3.162278 
C 2.323632 -4.000923 1.186024 -4.472136 0 -4.472136 
C -1.186024 -4.472136 -2.323632 -4.000923 -3.162278 -3.162278 
C -4.000923 -2.323632 -4.472136 -1.186024 -4.472136 0 
C -4.472136 1.186024 -4.000923 2.323632 -3.162278 3.162278 
C -2.323632 4.000923 -1.186024 4.472136 0 4.472136 
z
" style="stroke: #2c4f7c"/>
    </defs>
    <g clip-path="url(#p0f4d4821cf)">
     <use xlink:href="#m7b6e7255a9" x="467.071047" y="210.615216" style="fill: #2c4f7c; stroke: #2c4f7c"/>
    </g>
   </g>
   <g id="PathCollection_4">
    <g clip-path="url(#p0f4d4821cf)">
     <use xlink:href="#m7b6e7255a9" x="444.854141" y="170.546125" style="fill: #2c4f7c; stroke: #2c4f7c"/>
    </g>
   </g>
   <g id="PathCollection_5">
    <g clip-path="url(#p0f4d4821cf)">
     <use xlink:href="#md4e616be0f" x="402.395559" y="130.477034" style="fill: #888888; stroke: #888888"/>
    </g>
   </g>
   <g id="PathCollection_6">
    <g clip-path="url(#p0f4d4821cf)">
     <use xlink:href="#md4e616be0f" x="380.99204" y="90.407943" style="fill: #888888; stroke: #888888"/>
    </g>
   </g>
   <g id="PathCollection_7">
    <g clip-path="url(#p0f4d4821cf)">
     <use xlink:href="#m7b6e7255a9" x="399.019631" y="50.338852" style="fill: #2c4f7c; stroke: #2c4f7c"/>
    </g>
   </g>
  </g>
  <g id="text_21">
   <!-- Each dot shows how much each neighborhood trait predicts pollution change, holding the others constant. -->
   <g style="fill: #444444" transform="translate(147.020625 361.839875) scale(0.08 -0.08)">
    <use xlink:href="#DejaVuSans-45"/>
    <use xlink:href="#DejaVuSans-61" x="63.183594"/>
    <use xlink:href="#DejaVuSans-63" x="124.462891"/>
    <use xlink:href="#DejaVuSans-68" x="179.443359"/>
    <use xlink:href="#DejaVuSans-20" x="242.822266"/>
    <use xlink:href="#DejaVuSans-64" x="274.609375"/>
    <use xlink:href="#DejaVuSans-6f" x="338.085938"/>
    <use xlink:href="#DejaVuSans-74" x="399.267578"/>
    <use xlink:href="#DejaVuSans-20" x="438.476562"/>
    <use xlink:href="#DejaVuSans-73" x="470.263672"/>
    <use xlink:href="#DejaVuSans-68" x="522.363281"/>
    <use xlink:href="#DejaVuSans-6f" x="585.742188"/>
    <use xlink:href="#DejaVuSans-77" x="646.923828"/>
    <use xlink:href="#DejaVuSans-73" x="728.710938"/>
    <use xlink:href="#DejaVuSans-20" x="780.810547"/>
    <use xlink:href="#DejaVuSans-68" x="812.597656"/>
    <use xlink:href="#DejaVuSans-6f" x="875.976562"/>
    <use xlink:href="#DejaVuSans-77" x="937.158203"/>
    <use xlink:href="#DejaVuSans-20" x="1018.945312"/>
    <use xlink:href="#DejaVuSans-6d" x="1050.732422"/>
    <use xlink:href="#DejaVuSans-75" x="1148.144531"/>
    <use xlink:href="#DejaVuSans-63" x="1211.523438"/>
    <use xlink:href="#DejaVuSans-68" x="1266.503906"/>
    <use xlink:href="#DejaVuSans-20" x="1329.882812"/>
    <use xlink:href="#DejaVuSans-65" x="1361.669922"/>
    <use xlink:href="#DejaVuSans-61" x="1423.193359"/>
    <use xlink:href="#DejaVuSans-63" x="1484.472656"/>
    <use xlink:href="#DejaVuSans-68" x="1539.453125"/>
    <use xlink:href="#DejaVuSans-20" x="1602.832031"/>
    <use xlink:href="#DejaVuSans-6e" x="1634.619141"/>
    <use xlink:href="#DejaVuSans-65" x="1697.998047"/>
    <use xlink:href="#DejaVuSans-69" x="1759.521484"/>
    <use xlink:href="#DejaVuSans-67" x="1787.304688"/>
    <use xlink:href="#DejaVuSans-68" x="1850.78125"/>
    <use xlink:href="#DejaVuSans-62" x="1914.160156"/>
    <use xlink:href="#DejaVuSans-6f" x="1977.636719"/>
    <use xlink:href="#DejaVuSans-72" x="2038.818359"/>
    <use xlink:href="#DejaVuSans-68" x="2078.181641"/>
    <use xlink:href="#DejaVuSans-6f" x="2141.560547"/>
    <use xlink:href="#DejaVuSans-6f" x="2202.742188"/>
    <use xlink:href="#DejaVuSans-64" x="2263.923828"/>
    <use xlink:href="#DejaVuSans-20" x="2327.400391"/>
    <use xlink:href="#DejaVuSans-74" x="2359.1875"/>
    <use xlink:href="#DejaVuSans-72" x="2398.396484"/>
    <use xlink:href="#DejaVuSans-61" x="2439.509766"/>
    <use xlink:href="#DejaVuSans-69" x="2500.789062"/>
    <use xlink:href="#DejaVuSans-74" x="2528.572266"/>
    <use xlink:href="#DejaVuSans-20" x="2567.78125"/>
    <use xlink:href="#DejaVuSans-70" x="2599.568359"/>
    <use xlink:href="#DejaVuSans-72" x="2663.044922"/>
    <use xlink:href="#DejaVuSans-65" x="2701.908203"/>
    <use xlink:href="#DejaVuSans-64" x="2763.431641"/>
    <use xlink:href="#DejaVuSans-69" x="2826.908203"/>
    <use xlink:href="#DejaVuSans-63" x="2854.691406"/>
    <use xlink:href="#DejaVuSans-74" x="2909.671875"/>
    <use xlink:href="#DejaVuSans-73" x="2948.880859"/>
    <use xlink:href="#DejaVuSans-20" x="3000.980469"/>
    <use xlink:href="#DejaVuSans-70" x="3032.767578"/>
    <use xlink:href="#DejaVuSans-6f" x="3096.244141"/>
    <use xlink:href="#DejaVuSans-6c" x="3157.425781"/>
    <use xlink:href="#DejaVuSans-6c" x="3185.208984"/>
    <use xlink:href="#DejaVuSans-75" x="3212.992188"/>
    <use xlink:href="#DejaVuSans-74" x="3276.371094"/>
    <use xlink:href="#DejaVuSans-69" x="3315.580078"/>
    <use xlink:href="#DejaVuSans-6f" x="3343.363281"/>
    <use xlink:href="#DejaVuSans-6e" x="3404.544922"/>
    <use xlink:href="#DejaVuSans-20" x="3467.923828"/>
    <use xlink:href="#DejaVuSans-63" x="3499.710938"/>
    <use xlink:href="#DejaVuSans-68" x="3554.691406"/>
    <use xlink:href="#DejaVuSans-61" x="3618.070312"/>
    <use xlink:href="#DejaVuSans-6e" x="3679.349609"/>
    <use xlink:href="#DejaVuSans-67" x="3742.728516"/>
    <use xlink:href="#DejaVuSans-65" x="3806.205078"/>
    <use xlink:href="#DejaVuSans-2c" x="3867.728516"/>
    <use xlink:href="#DejaVuSans-20" x="3899.515625"/>
    <use xlink:href="#DejaVuSans-68" x="3931.302734"/>
    <use xlink:href="#DejaVuSans-6f" x="3994.681641"/>
    <use xlink:href="#DejaVuSans-6c" x="4055.863281"/>
    <use xlink:href="#DejaVuSans-64" x="4083.646484"/>
    <use xlink:href="#DejaVuSans-69" x="4147.123047"/>
    <use xlink:href="#DejaVuSans-6e" x="4174.90625"/>
    <use xlink:href="#DejaVuSans-67" x="4238.285156"/>
    <use xlink:href="#DejaVuSans-20" x="4301.761719"/>
    <use xlink:href="#DejaVuSans-74" x="4333.548828"/>
    <use xlink:href="#DejaVuSans-68" x="4372.757812"/>
    <use xlink:href="#DejaVuSans-65" x="4436.136719"/>
    <use xlink:href="#DejaVuSans-20" x="4497.660156"/>
    <use xlink:href="#DejaVuSans-6f" x="4529.447266"/>
    <use xlink:href="#DejaVuSans-74" x="4590.628906"/>
    <use xlink:href="#DejaVuSans-68" x="4629.837891"/>
    <use xlink:href="#DejaVuSans-65" x="4693.216797"/>
    <use xlink:href="#DejaVuSans-72" x="4754.740234"/>
    <use xlink:href="#DejaVuSans-73" x="4795.853516"/>
    <use xlink:href="#DejaVuSans-20" x="4847.953125"/>
    <use xlink:href="#DejaVuSans-63" x="4879.740234"/>
    <use xlink:href="#DejaVuSans-6f" x="4934.720703"/>
    <use xlink:href="#DejaVuSans-6e" x="4995.902344"/>
    <use xlink:href="#DejaVuSans-73" x="5059.28125"/>
    <use xlink:href="#DejaVuSans-74" x="5111.380859"/>
    <use xlink:href="#DejaVuSans-61" x="5150.589844"/>
    <use xlink:href="#DejaVuSans-6e" x="5211.869141"/>
    <use xlink:href="#DejaVuSans-74" x="5275.248047"/>
    <use xlink:href="#DejaVuSans-2e" x="5314.457031"/>
   </g>
   <!-- Spatial Lag Model on 243 NYC neighborhoods, R² = 0.33, HC3-corrected SEs.   *** = strong evidence (p&lt;0.001).   ** = moderate evidence (p&lt;0.01).   no stars = no clear effect. -->
   <g style="fill: #444444" transform="translate(7.2 370.798125) scale(0.08 -0.08)">
    <defs>
     <path id="DejaVuSans-4c" d="M 628 4666 
L 1259 4666 
L 1259 531 
L 3531 531 
L 3531 0 
L 628 0 
L 628 4666 
z
" transform="scale(0.015625)"/>
     <path id="DejaVuSans-4d" d="M 628 4666 
L 1569 4666 
L 2759 1491 
L 3956 4666 
L 4897 4666 
L 4897 0 
L 4281 0 
L 4281 4097 
L 3078 897 
L 2444 897 
L 1241 4097 
L 1241 0 
L 628 0 
L 628 4666 
z
" transform="scale(0.015625)"/>
     <path id="DejaVuSans-33" d="M 2597 2516 
Q 3050 2419 3304 2112 
Q 3559 1806 3559 1356 
Q 3559 666 3084 287 
Q 2609 -91 1734 -91 
Q 1441 -91 1130 -33 
Q 819 25 488 141 
L 488 750 
Q 750 597 1062 519 
Q 1375 441 1716 441 
Q 2309 441 2620 675 
Q 2931 909 2931 1356 
Q 2931 1769 2642 2001 
Q 2353 2234 1838 2234 
L 1294 2234 
L 1294 2753 
L 1863 2753 
Q 2328 2753 2575 2939 
Q 2822 3125 2822 3475 
Q 2822 3834 2567 4026 
Q 2313 4219 1838 4219 
Q 1578 4219 1281 4162 
Q 984 4106 628 3988 
L 628 4550 
Q 988 4650 1302 4700 
Q 1616 4750 1894 4750 
Q 2613 4750 3031 4423 
Q 3450 4097 3450 3541 
Q 3450 3153 3228 2886 
Q 3006 2619 2597 2516 
z
" transform="scale(0.015625)"/>
     <path id="DejaVuSans-59" d="M -13 4666 
L 666 4666 
L 1959 2747 
L 3244 4666 
L 3922 4666 
L 2272 2222 
L 2272 0 
L 1638 0 
L 1638 2222 
L -13 4666 
z
" transform="scale(0.015625)"/>
     <path id="DejaVuSans-43" d="M 4122 4306 
L 4122 3641 
Q 3803 3938 3442 4084 
Q 3081 4231 2675 4231 
Q 1875 4231 1450 3742 
Q 1025 3253 1025 2328 
Q 1025 1406 1450 917 
Q 1875 428 2675 428 
Q 3081 428 3442 575 
Q 3803 722 4122 1019 
L 4122 359 
Q 3791 134 3420 21 
Q 3050 -91 2638 -91 
Q 1578 -91 968 557 
Q 359 1206 359 2328 
Q 359 3453 968 4101 
Q 1578 4750 2638 4750 
Q 3056 4750 3426 4639 
Q 3797 4528 4122 4306 
z
" transform="scale(0.015625)"/>
     <path id="DejaVuSans-52" d="M 2841 2188 
Q 3044 2119 3236 1894 
Q 3428 1669 3622 1275 
L 4263 0 
L 3584 0 
L 2988 1197 
Q 2756 1666 2539 1819 
Q 2322 1972 1947 1972 
L 1259 1972 
L 1259 0 
L 628 0 
L 628 4666 
L 2053 4666 
Q 2853 4666 3247 4331 
Q 3641 3997 3641 3322 
Q 3641 2881 3436 2590 
Q 3231 2300 2841 2188 
z
M 1259 4147 
L 1259 2491 
L 2053 2491 
Q 2509 2491 2742 2702 
Q 2975 2913 2975 3322 
Q 2975 3731 2742 3939 
Q 2509 4147 2053 4147 
L 1259 4147 
z
" transform="scale(0.015625)"/>
     <path id="DejaVuSans-b2" d="M 838 2444 
L 2163 2444 
L 2163 2088 
L 294 2088 
L 294 2431 
Q 400 2528 597 2703 
Q 1672 3656 1672 3950 
Q 1672 4156 1509 4282 
Q 1347 4409 1081 4409 
Q 919 4409 728 4354 
Q 538 4300 313 4191 
L 313 4575 
Q 553 4663 761 4706 
Q 969 4750 1147 4750 
Q 1600 4750 1872 4544 
Q 2144 4338 2144 4000 
Q 2144 3566 1109 2678 
Q 934 2528 838 2444 
z
" transform="scale(0.015625)"/>
     <path id="DejaVuSans-48" d="M 628 4666 
L 1259 4666 
L 1259 2753 
L 3553 2753 
L 3553 4666 
L 4184 4666 
L 4184 0 
L 3553 0 
L 3553 2222 
L 1259 2222 
L 1259 0 
L 628 0 
L 628 4666 
z
" transform="scale(0.015625)"/>
     <path id="DejaVuSans-3c" d="M 4684 3150 
L 1459 2003 
L 4684 863 
L 4684 294 
L 678 1747 
L 678 2266 
L 4684 3719 
L 4684 3150 
z
" transform="scale(0.015625)"/>
    </defs>
    <use xlink:href="#DejaVuSans-53"/>
    <use xlink:href="#DejaVuSans-70" x="63.476562"/>
    <use xlink:href="#DejaVuSans-61" x="126.953125"/>
    <use xlink:href="#DejaVuSans-74" x="188.232422"/>
    <use xlink:href="#DejaVuSans-69" x="227.441406"/>
    <use xlink:href="#DejaVuSans-61" x="255.224609"/>
    <use xlink:href="#DejaVuSans-6c" x="316.503906"/>
    <use xlink:href="#DejaVuSans-20" x="344.287109"/>
    <use xlink:href="#DejaVuSans-4c" x="376.074219"/>
    <use xlink:href="#DejaVuSans-61" x="431.787109"/>
    <use xlink:href="#DejaVuSans-67" x="493.066406"/>
    <use xlink:href="#DejaVuSans-20" x="556.542969"/>
    <use xlink:href="#DejaVuSans-4d" x="588.330078"/>
    <use xlink:href="#DejaVuSans-6f" x="674.609375"/>
    <use xlink:href="#DejaVuSans-64" x="735.791016"/>
    <use xlink:href="#DejaVuSans-65" x="799.267578"/>
    <use xlink:href="#DejaVuSans-6c" x="860.791016"/>
    <use xlink:href="#DejaVuSans-20" x="888.574219"/>
    <use xlink:href="#DejaVuSans-6f" x="920.361328"/>
    <use xlink:href="#DejaVuSans-6e" x="981.542969"/>
    <use xlink:href="#DejaVuSans-20" x="1044.921875"/>
    <use xlink:href="#DejaVuSans-32" x="1076.708984"/>
    <use xlink:href="#DejaVuSans-34" x="1140.332031"/>
    <use xlink:href="#DejaVuSans-33" x="1203.955078"/>
    <use xlink:href="#DejaVuSans-20" x="1267.578125"/>
    <use xlink:href="#DejaVuSans-4e" x="1299.365234"/>
    <use xlink:href="#DejaVuSans-59" x="1374.169922"/>
    <use xlink:href="#DejaVuSans-43" x="1429.753906"/>
    <use xlink:href="#DejaVuSans-20" x="1499.578125"/>
    <use xlink:href="#DejaVuSans-6e" x="1531.365234"/>
    <use xlink:href="#DejaVuSans-65" x="1594.744141"/>
    <use xlink:href="#DejaVuSans-69" x="1656.267578"/>
    <use xlink:href="#DejaVuSans-67" x="1684.050781"/>
    <use xlink:href="#DejaVuSans-68" x="1747.527344"/>
    <use xlink:href="#DejaVuSans-62" x="1810.90625"/>
    <use xlink:href="#DejaVuSans-6f" x="1874.382812"/>
    <use xlink:href="#DejaVuSans-72" x="1935.564453"/>
    <use xlink:href="#DejaVuSans-68" x="1974.927734"/>
    <use xlink:href="#DejaVuSans-6f" x="2038.306641"/>
    <use xlink:href="#DejaVuSans-6f" x="2099.488281"/>
    <use xlink:href="#DejaVuSans-64" x="2160.669922"/>
    <use xlink:href="#DejaVuSans-73" x="2224.146484"/>
    <use xlink:href="#DejaVuSans-2c" x="2276.246094"/>
    <use xlink:href="#DejaVuSans-20" x="2308.033203"/>
    <use xlink:href="#DejaVuSans-52" x="2339.820312"/>
    <use xlink:href="#DejaVuSans-b2" x="2409.302734"/>
    <use xlink:href="#DejaVuSans-20" x="2449.390625"/>
    <use xlink:href="#DejaVuSans-3d" x="2481.177734"/>
    <use xlink:href="#DejaVuSans-20" x="2564.966797"/>
    <use xlink:href="#DejaVuSans-30" x="2596.753906"/>
    <use xlink:href="#DejaVuSans-2e" x="2660.376953"/>
    <use xlink:href="#DejaVuSans-33" x="2692.164062"/>
    <use xlink:href="#DejaVuSans-33" x="2755.787109"/>
    <use xlink:href="#DejaVuSans-2c" x="2819.410156"/>
    <use xlink:href="#DejaVuSans-20" x="2851.197266"/>
    <use xlink:href="#DejaVuSans-48" x="2882.984375"/>
    <use xlink:href="#DejaVuSans-43" x="2958.179688"/>
    <use xlink:href="#DejaVuSans-33" x="3028.003906"/>
    <use xlink:href="#DejaVuSans-2d" x="3091.626953"/>
    <use xlink:href="#DejaVuSans-63" x="3127.710938"/>
    <use xlink:href="#DejaVuSans-6f" x="3182.691406"/>
    <use xlink:href="#DejaVuSans-72" x="3243.873047"/>
    <use xlink:href="#DejaVuSans-72" x="3283.236328"/>
    <use xlink:href="#DejaVuSans-65" x="3322.099609"/>
    <use xlink:href="#DejaVuSans-63" x="3383.623047"/>
    <use xlink:href="#DejaVuSans-74" x="3438.603516"/>
    <use xlink:href="#DejaVuSans-65" x="3477.8125"/>
    <use xlink:href="#DejaVuSans-64" x="3539.335938"/>
    <use xlink:href="#DejaVuSans-20" x="3602.8125"/>
    <use xlink:href="#DejaVuSans-53" x="3634.599609"/>
    <use xlink:href="#DejaVuSans-45" x="3698.076172"/>
    <use xlink:href="#DejaVuSans-73" x="3761.259766"/>
    <use xlink:href="#DejaVuSans-2e" x="3813.359375"/>
    <use xlink:href="#DejaVuSans-20" x="3845.146484"/>
    <use xlink:href="#DejaVuSans-20" x="3876.933594"/>
    <use xlink:href="#DejaVuSans-20" x="3908.720703"/>
    <use xlink:href="#DejaVuSans-2a" x="3940.507812"/>
    <use xlink:href="#DejaVuSans-2a" x="3990.507812"/>
    <use xlink:href="#DejaVuSans-2a" x="4040.507812"/>
    <use xlink:href="#DejaVuSans-20" x="4090.507812"/>
    <use xlink:href="#DejaVuSans-3d" x="4122.294922"/>
    <use xlink:href="#DejaVuSans-20" x="4206.083984"/>
    <use xlink:href="#DejaVuSans-73" x="4237.871094"/>
    <use xlink:href="#DejaVuSans-74" x="4289.970703"/>
    <use xlink:href="#DejaVuSans-72" x="4329.179688"/>
    <use xlink:href="#DejaVuSans-6f" x="4368.042969"/>
    <use xlink:href="#DejaVuSans-6e" x="4429.224609"/>
    <use xlink:href="#DejaVuSans-67" x="4492.603516"/>
    <use xlink:href="#DejaVuSans-20" x="4556.080078"/>
    <use xlink:href="#DejaVuSans-65" x="4587.867188"/>
    <use xlink:href="#DejaVuSans-76" x="4649.390625"/>
    <use xlink:href="#DejaVuSans-69" x="4708.570312"/>
    <use xlink:href="#DejaVuSans-64" x="4736.353516"/>
    <use xlink:href="#DejaVuSans-65" x="4799.830078"/>
    <use xlink:href="#DejaVuSans-6e" x="4861.353516"/>
    <use xlink:href="#DejaVuSans-63" x="4924.732422"/>
    <use xlink:href="#DejaVuSans-65" x="4979.712891"/>
    <use xlink:href="#DejaVuSans-20" x="5041.236328"/>
    <use xlink:href="#DejaVuSans-28" x="5073.023438"/>
    <use xlink:href="#DejaVuSans-70" x="5112.037109"/>
    <use xlink:href="#DejaVuSans-3c" x="5175.513672"/>
    <use xlink:href="#DejaVuSans-30" x="5259.302734"/>
    <use xlink:href="#DejaVuSans-2e" x="5322.925781"/>
    <use xlink:href="#DejaVuSans-30" x="5354.712891"/>
    <use xlink:href="#DejaVuSans-30" x="5418.335938"/>
    <use xlink:href="#DejaVuSans-31" x="5481.958984"/>
    <use xlink:href="#DejaVuSans-29" x="5545.582031"/>
    <use xlink:href="#DejaVuSans-2e" x="5584.595703"/>
    <use xlink:href="#DejaVuSans-20" x="5616.382812"/>
    <use xlink:href="#DejaVuSans-20" x="5648.169922"/>
    <use xlink:href="#DejaVuSans-20" x="5679.957031"/>
    <use xlink:href="#DejaVuSans-2a" x="5711.744141"/>
    <use xlink:href="#DejaVuSans-2a" x="5761.744141"/>
    <use xlink:href="#DejaVuSans-20" x="5811.744141"/>
    <use xlink:href="#DejaVuSans-3d" x="5843.53125"/>
    <use xlink:href="#DejaVuSans-20" x="5927.320312"/>
    <use xlink:href="#DejaVuSans-6d" x="5959.107422"/>
    <use xlink:href="#DejaVuSans-6f" x="6056.519531"/>
    <use xlink:href="#DejaVuSans-64" x="6117.701172"/>
    <use xlink:href="#DejaVuSans-65" x="6181.177734"/>
    <use xlink:href="#DejaVuSans-72" x="6242.701172"/>
    <use xlink:href="#DejaVuSans-61" x="6283.814453"/>
    <use xlink:href="#DejaVuSans-74" x="6345.09375"/>
    <use xlink:href="#DejaVuSans-65" x="6384.302734"/>
    <use xlink:href="#DejaVuSans-20" x="6445.826172"/>
    <use xlink:href="#DejaVuSans-65" x="6477.613281"/>
    <use xlink:href="#DejaVuSans-76" x="6539.136719"/>
    <use xlink:href="#DejaVuSans-69" x="6598.316406"/>
    <use xlink:href="#DejaVuSans-64" x="6626.099609"/>
    <use xlink:href="#DejaVuSans-65" x="6689.576172"/>
    <use xlink:href="#DejaVuSans-6e" x="6751.099609"/>
    <use xlink:href="#DejaVuSans-63" x="6814.478516"/>
    <use xlink:href="#DejaVuSans-65" x="6869.458984"/>
    <use xlink:href="#DejaVuSans-20" x="6930.982422"/>
    <use xlink:href="#DejaVuSans-28" x="6962.769531"/>
    <use xlink:href="#DejaVuSans-70" x="7001.783203"/>
    <use xlink:href="#DejaVuSans-3c" x="7065.259766"/>
    <use xlink:href="#DejaVuSans-30" x="7149.048828"/>
    <use xlink:href="#DejaVuSans-2e" x="7212.671875"/>
    <use xlink:href="#DejaVuSans-30" x="7244.458984"/>
    <use xlink:href="#DejaVuSans-31" x="7308.082031"/>
    <use xlink:href="#DejaVuSans-29" x="7371.705078"/>
    <use xlink:href="#DejaVuSans-2e" x="7410.71875"/>
    <use xlink:href="#DejaVuSans-20" x="7442.505859"/>
    <use xlink:href="#DejaVuSans-20" x="7474.292969"/>
    <use xlink:href="#DejaVuSans-20" x="7506.080078"/>
    <use xlink:href="#DejaVuSans-6e" x="7537.867188"/>
    <use xlink:href="#DejaVuSans-6f" x="7601.246094"/>
    <use xlink:href="#DejaVuSans-20" x="7662.427734"/>
    <use xlink:href="#DejaVuSans-73" x="7694.214844"/>
    <use xlink:href="#DejaVuSans-74" x="7746.314453"/>
    <use xlink:href="#DejaVuSans-61" x="7785.523438"/>
    <use xlink:href="#DejaVuSans-72" x="7846.802734"/>
    <use xlink:href="#DejaVuSans-73" x="7887.916016"/>
    <use xlink:href="#DejaVuSans-20" x="7940.015625"/>
    <use xlink:href="#DejaVuSans-3d" x="7971.802734"/>
    <use xlink:href="#DejaVuSans-20" x="8055.591797"/>
    <use xlink:href="#DejaVuSans-6e" x="8087.378906"/>
    <use xlink:href="#DejaVuSans-6f" x="8150.757812"/>
    <use xlink:href="#DejaVuSans-20" x="8211.939453"/>
    <use xlink:href="#DejaVuSans-63" x="8243.726562"/>
    <use xlink:href="#DejaVuSans-6c" x="8298.707031"/>
    <use xlink:href="#DejaVuSans-65" x="8326.490234"/>
    <use xlink:href="#DejaVuSans-61" x="8388.013672"/>
    <use xlink:href="#DejaVuSans-72" x="8449.292969"/>
    <use xlink:href="#DejaVuSans-20" x="8490.40625"/>
    <use xlink:href="#DejaVuSans-65" x="8522.193359"/>
    <use xlink:href="#DejaVuSans-66" x="8583.716797"/>
    <use xlink:href="#DejaVuSans-66" x="8618.921875"/>
    <use xlink:href="#DejaVuSans-65" x="8654.126953"/>
    <use xlink:href="#DejaVuSans-63" x="8715.650391"/>
    <use xlink:href="#DejaVuSans-74" x="8770.630859"/>
    <use xlink:href="#DejaVuSans-2e" x="8809.839844"/>
   </g>
  </g>
 </g>
 <defs>
  <clipPath id="p0f4d4821cf">
   <rect x="361.6275" y="38.318125" width="158.525" height="264.456"/>
  </clipPath>
 </defs>
</svg>
